<?xml version="1.0" encoding="UTF-8"?>
<!DOCTYPE svg PUBLIC "-//W3C//DTD SVG 1.1//EN" "http://www.w3.org/Graphics/SVG/1.1/DTD/svg11.dtd">
<svg xmlns="http://www.w3.org/2000/svg" version="1.1" width="512px" height="512px" style="shape-rendering:geometricPrecision; text-rendering:geometricPrecision; image-rendering:optimizeQuality; fill-rule:evenodd; clip-rule:evenodd" xmlns:xlink="http://www.w3.org/1999/xlink">
<g><path style="opacity:0.964" fill="#262727" d="M 362.5,319.5 C 361.094,319.973 360.427,320.973 360.5,322.5C 340.194,347.106 320.36,372.106 301,397.5C 290.269,413.246 280.769,429.746 272.5,447C 284.689,447.884 296.689,449.884 308.5,453C 319.177,456.084 328.344,461.584 336,469.5C 340.507,478.244 338.674,485.411 330.5,491C 282.999,513.267 234.999,514.267 186.5,494C 181.269,490.976 176.769,487.143 173,482.5C 171,478.833 171,475.167 173,471.5C 179.75,464.374 187.917,459.708 197.5,457.5C 200.659,456.669 203.659,455.669 206.5,454.5C 216.854,452.296 227.188,449.962 237.5,447.5C 229.196,429.551 219.363,412.551 208,396.5C 185.711,368.543 163.045,340.876 140,313.5C 124.657,292.831 111.323,270.831 100,247.5C 81.329,199.807 82.1624,152.474 102.5,105.5C 104.25,104.341 105.25,102.674 105.5,100.5C 108.98,92.8736 112.98,85.5403 117.5,78.5C 119.727,76.3932 121.727,74.0599 123.5,71.5C 130.057,60.9393 138.391,51.9393 148.5,44.5C 151.207,42.1568 153.874,39.8235 156.5,37.5C 167.571,28.4633 179.904,21.4633 193.5,16.5C 195.819,16.0075 197.819,15.0075 199.5,13.5C 274.698,-8.6673 337.531,9.99937 388,69.5C 426.407,121.681 434.407,178.347 412,239.5C 399.266,268.683 382.766,295.35 362.5,319.5 Z M 243.5,13.5 C 247.5,13.5 251.5,13.5 255.5,13.5C 237.834,24.3355 219.834,34.6688 201.5,44.5C 215.5,34.1667 229.5,23.8333 243.5,13.5 Z M 219.5,15.5 C 208.763,22.2249 197.763,28.5583 186.5,34.5C 190.249,31.112 194.249,27.9454 198.5,25C 200.79,23.2228 202.457,21.0562 203.5,18.5C 208.782,17.2436 214.115,16.2436 219.5,15.5 Z M 272.5,15.5 C 274.435,16.1495 276.435,16.4828 278.5,16.5C 263.998,25.9211 248.998,34.5878 233.5,42.5C 246.326,33.2533 259.326,24.2533 272.5,15.5 Z M 233.5,42.5 C 233.027,43.9063 232.027,44.573 230.5,44.5C 230.973,43.0937 231.973,42.427 233.5,42.5 Z M 150.5,67.5 C 150.027,68.9063 149.027,69.573 147.5,69.5C 147.973,68.0937 148.973,67.427 150.5,67.5 Z M 368.5,67.5 C 370.167,68.5 371.5,69.8333 372.5,71.5C 365.036,76.4034 357.369,81.0701 349.5,85.5C 348.5,84.1667 347.5,82.8333 346.5,81.5C 354.124,77.1941 361.457,72.5274 368.5,67.5 Z M 147.5,69.5 C 140.061,75.9365 132.061,81.6032 123.5,86.5C 124.5,84.5 125.5,82.5 126.5,80.5C 133.342,76.5784 140.342,72.9117 147.5,69.5 Z M 379.5,79.5 C 379.833,80.1667 380.167,80.8333 380.5,81.5C 378.5,82.1667 376.5,82.8333 374.5,83.5C 375.945,81.9373 377.611,80.604 379.5,79.5 Z M 374.5,83.5 C 373.341,85.2503 371.674,86.2503 369.5,86.5C 370.659,84.7497 372.326,83.7497 374.5,83.5 Z M 369.5,86.5 C 369.027,87.9063 368.027,88.573 366.5,88.5C 366.973,87.0937 367.973,86.427 369.5,86.5 Z M 386.5,89.5 C 387.752,91.0009 388.752,92.6675 389.5,94.5C 381.5,98.8333 373.5,103.167 365.5,107.5C 364.326,106.486 363.66,105.153 363.5,103.5C 371.184,98.8063 378.851,94.1397 386.5,89.5 Z M 139.5,92.5 C 139.027,93.9063 138.027,94.573 136.5,94.5C 136.973,93.0937 137.973,92.427 139.5,92.5 Z M 136.5,94.5 C 129.045,100.067 121.379,105.401 113.5,110.5C 113.833,109.167 114.167,107.833 114.5,106.5C 121.54,101.98 128.874,97.9795 136.5,94.5 Z M 394.5,103.5 C 395.441,105.05 396.107,106.716 396.5,108.5C 388.328,113.42 379.995,118.087 371.5,122.5C 371.167,121.167 370.833,119.833 370.5,118.5C 378.156,113.003 386.156,108.003 394.5,103.5 Z M 398.5,119.5 C 398.027,120.906 397.027,121.573 395.5,121.5C 395.973,120.094 396.973,119.427 398.5,119.5 Z M 404.5,128.5 C 405.309,130.028 405.976,131.694 406.5,133.5C 397.634,138.766 388.634,143.766 379.5,148.5C 378.566,147.432 378.232,146.099 378.5,144.5C 387.414,139.59 396.08,134.257 404.5,128.5 Z M 408.5,144.5 C 409.369,146.717 409.702,149.05 409.5,151.5C 400.167,156.833 390.833,162.167 381.5,167.5C 381.5,165.833 381.5,164.167 381.5,162.5C 390.291,156.265 399.291,150.265 408.5,144.5 Z M 411.5,162.5 C 411.5,164.5 411.5,166.5 411.5,168.5C 401.3,174.433 390.967,180.1 380.5,185.5C 381.234,184.292 381.567,182.959 381.5,181.5C 391.19,174.656 401.19,168.323 411.5,162.5 Z M 411.5,180.5 C 411.5,180.833 411.5,181.167 411.5,181.5C 410.609,182.11 409.609,182.443 408.5,182.5C 408.973,181.094 409.973,180.427 411.5,180.5 Z M 410.5,194.5 C 409.699,196.042 409.366,197.708 409.5,199.5C 396.833,206.5 384.167,213.5 371.5,220.5C 371.5,219.833 371.5,219.167 371.5,218.5C 384.5,210.5 397.5,202.5 410.5,194.5 Z M 134.5,202.5 C 134.433,203.959 134.766,205.292 135.5,206.5C 126.167,212.5 116.833,218.5 107.5,224.5C 107.167,222.5 106.833,220.5 106.5,218.5C 115.833,213.167 125.167,207.833 134.5,202.5 Z M 406.5,213.5 C 406.167,215.5 405.833,217.5 405.5,219.5C 387.5,229.5 369.5,239.5 351.5,249.5C 351.833,248.833 352.167,248.167 352.5,247.5C 370.472,236.177 388.472,224.844 406.5,213.5 Z M 123.5,227.5 C 123.027,228.906 122.027,229.573 120.5,229.5C 120.973,228.094 121.973,227.427 123.5,227.5 Z M 144.5,228.5 C 144.833,229.833 145.167,231.167 145.5,232.5C 136.167,238.5 126.833,244.5 117.5,250.5C 116.833,248.5 116.167,246.5 115.5,244.5C 125.3,239.433 134.967,234.099 144.5,228.5 Z M 118.5,230.5 C 116.469,232.522 114.135,234.189 111.5,235.5C 111.5,234.833 111.5,234.167 111.5,233.5C 113.687,232.242 116.02,231.242 118.5,230.5 Z M 399.5,235.5 C 399.5,236.167 399.5,236.833 399.5,237.5C 393.127,241.687 386.461,245.353 379.5,248.5C 385.622,243.387 392.289,239.054 399.5,235.5 Z M 152.5,242.5 C 152.557,243.609 152.89,244.609 153.5,245.5C 144.167,251.833 134.833,258.167 125.5,264.5C 124.263,263.035 123.263,261.368 122.5,259.5C 132.517,253.805 142.517,248.139 152.5,242.5 Z M 379.5,248.5 C 378.341,250.25 376.674,251.25 374.5,251.5C 375.659,249.75 377.326,248.75 379.5,248.5 Z M 170.5,263.5 C 170.833,264.5 171.5,265.167 172.5,265.5C 161.5,272.833 150.5,280.167 139.5,287.5C 138.11,286.101 137.11,284.434 136.5,282.5C 147.85,276.139 159.184,269.805 170.5,263.5 Z M 137.5,269.5 C 137.027,270.906 136.027,271.573 134.5,271.5C 134.973,270.094 135.973,269.427 137.5,269.5 Z M 132.5,272.5 C 132.167,273.5 131.5,274.167 130.5,274.5C 130.5,274.167 130.5,273.833 130.5,273.5C 130.842,272.662 131.508,272.328 132.5,272.5 Z M 183.5,273.5 C 184.872,274.512 186.205,275.512 187.5,276.5C 174.33,284.584 161.33,292.917 148.5,301.5C 147.5,299.5 146.5,297.5 145.5,295.5C 158.167,288.167 170.833,280.833 183.5,273.5 Z M 200.5,282.5 C 201.71,282.932 202.71,283.599 203.5,284.5C 188.67,294.416 173.67,304.083 158.5,313.5C 157.512,312.205 156.512,310.872 155.5,309.5C 170.666,300.752 185.666,291.752 200.5,282.5 Z M 230.5,297.5 C 230.027,298.906 229.027,299.573 227.5,299.5C 227.973,298.094 228.973,297.427 230.5,297.5 Z M 227.5,299.5 C 210.351,311.579 192.684,322.912 174.5,333.5C 173.599,332.71 172.932,331.71 172.5,330.5C 190.699,319.901 209.032,309.568 227.5,299.5 Z M 245.5,305.5 C 225.688,319.576 205.355,332.91 184.5,345.5C 183.512,344.205 182.512,342.872 181.5,341.5C 202.833,329.5 224.167,317.5 245.5,305.5 Z M 171.5,318.5 C 170.341,320.25 168.674,321.25 166.5,321.5C 167.659,319.75 169.326,318.75 171.5,318.5 Z M 227.5,333.5 C 227.027,334.906 226.027,335.573 224.5,335.5C 224.973,334.094 225.973,333.427 227.5,333.5 Z M 222.5,336.5 C 212.833,343.167 203.167,349.833 193.5,356.5C 192.599,355.71 191.932,354.71 191.5,353.5C 201.7,347.567 212.033,341.9 222.5,336.5 Z M 221.5,375.5 C 221.027,376.906 220.027,377.573 218.5,377.5C 218.973,376.094 219.973,375.427 221.5,375.5 Z M 218.5,377.5 C 217.055,379.063 215.389,380.396 213.5,381.5C 212.833,381.5 212.5,381.167 212.5,380.5C 214.181,378.992 216.181,377.992 218.5,377.5 Z M 231.5,383.5 C 228.048,386.399 224.382,389.066 220.5,391.5C 220.167,390.833 219.833,390.167 219.5,389.5C 223.527,387.487 227.527,385.487 231.5,383.5 Z M 231.5,397.5 C 231.027,398.906 230.027,399.573 228.5,399.5C 228.973,398.094 229.973,397.427 231.5,397.5 Z M 257.5,418.5 C 253.778,423.189 249.445,427.189 244.5,430.5C 243.833,429.167 243.167,427.833 242.5,426.5C 247.368,423.566 252.368,420.9 257.5,418.5 Z M 292.5,460.5 C 293.833,460.5 295.167,460.5 296.5,460.5C 293.001,462.75 289.335,464.75 285.5,466.5C 287.234,463.8 289.568,461.8 292.5,460.5 Z M 207.5,461.5 C 208.167,461.5 208.833,461.5 209.5,461.5C 209.027,462.906 208.027,463.573 206.5,463.5C 206.833,462.833 207.167,462.167 207.5,461.5 Z M 309.5,465.5 C 310.71,465.932 311.71,466.599 312.5,467.5C 309.167,469.167 305.833,470.833 302.5,472.5C 304.5,469.833 306.833,467.5 309.5,465.5 Z M 241.5,489.5 C 238.729,492.392 235.729,495.058 232.5,497.5C 230.833,497.5 229.167,497.5 227.5,497.5C 231.833,494.331 236.5,491.664 241.5,489.5 Z M 267.5,489.5 C 264.167,492.833 260.833,496.167 257.5,499.5C 254.833,499.5 252.167,499.5 249.5,499.5C 255.17,495.663 261.17,492.33 267.5,489.5 Z"/></g>
<g><path style="opacity:0.227" fill="#0e8ccb" d="M 199.5,13.5 C 197.819,15.0075 195.819,16.0075 193.5,16.5C 194.911,14.461 196.911,13.461 199.5,13.5 Z"/></g>
<g><path style="opacity:0.959" fill="#03a6f4" d="M 243.5,13.5 C 229.5,23.8333 215.5,34.1667 201.5,44.5C 219.834,34.6688 237.834,24.3355 255.5,13.5C 261.417,13.216 267.084,13.8827 272.5,15.5C 259.326,24.2533 246.326,33.2533 233.5,42.5C 248.998,34.5878 263.998,25.9211 278.5,16.5C 294.976,19.9915 310.643,25.6582 325.5,33.5C 326.298,33.9569 326.631,34.6236 326.5,35.5C 329.016,35.7553 331.35,36.5886 333.5,38C 342.521,43.8444 351.188,50.1778 359.5,57C 363.078,60.0724 366.078,63.5724 368.5,67.5C 361.457,72.5274 354.124,77.1941 346.5,81.5C 319.845,57.8338 288.512,46.8338 252.5,48.5C 249.505,45.8258 246.838,46.1591 244.5,49.5C 236.106,50.8435 227.773,52.5102 219.5,54.5C 218.518,53.8592 217.518,53.1925 216.5,52.5C 211.935,54.9412 207.602,57.6079 203.5,60.5C 194.589,64.9592 185.923,69.9592 177.5,75.5C 175.973,75.427 174.973,76.0937 174.5,77.5C 134.703,110.562 121.37,152.228 134.5,202.5C 125.167,207.833 115.833,213.167 106.5,218.5C 105.073,216.852 104.24,214.852 104,212.5C 100.002,196.559 99.5021,180.559 102.5,164.5C 103.833,164.167 103.833,163.833 102.5,163.5C 103.605,146.87 106.438,130.537 111,114.5C 111.662,113.016 112.496,111.683 113.5,110.5C 121.379,105.401 129.045,100.067 136.5,94.5C 128.874,97.9795 121.54,101.98 114.5,106.5C 116.35,99.2686 119.35,92.6019 123.5,86.5C 132.061,81.6032 140.061,75.9365 147.5,69.5C 140.342,72.9117 133.342,76.5784 126.5,80.5C 140.877,54.299 161.877,35.1323 189.5,23C 194.02,20.9932 198.687,19.4932 203.5,18.5C 202.457,21.0562 200.79,23.2228 198.5,25C 194.249,27.9454 190.249,31.112 186.5,34.5C 197.763,28.5583 208.763,22.2249 219.5,15.5C 227.461,12.6471 235.461,11.9805 243.5,13.5 Z M 243.5,13.5 C 247.5,13.5 251.5,13.5 255.5,13.5C 237.834,24.3355 219.834,34.6688 201.5,44.5C 215.5,34.1667 229.5,23.8333 243.5,13.5 Z M 233.5,42.5 C 233.027,43.9063 232.027,44.573 230.5,44.5C 230.973,43.0937 231.973,42.427 233.5,42.5 Z M 150.5,67.5 C 150.027,68.9063 149.027,69.573 147.5,69.5C 147.973,68.0937 148.973,67.427 150.5,67.5 Z M 139.5,92.5 C 139.027,93.9063 138.027,94.573 136.5,94.5C 136.973,93.0937 137.973,92.427 139.5,92.5 Z"/></g>
<g><path style="opacity:0.49" fill="#0c92dd" d="M 156.5,37.5 C 153.874,39.8235 151.207,42.1568 148.5,44.5C 149.877,40.7947 152.544,38.4613 156.5,37.5 Z"/></g>
<g><path style="opacity:1" fill="#d8e5ec" d="M 252.5,48.5 C 250.052,49.4731 247.385,49.8064 244.5,49.5C 246.838,46.1591 249.505,45.8258 252.5,48.5 Z"/></g>
<g><path style="opacity:0.997" fill="#272829" d="M 252.5,48.5 C 288.512,46.8338 319.845,57.8338 346.5,81.5C 347.5,82.8333 348.5,84.1667 349.5,85.5C 351.372,88.5819 353.705,91.2486 356.5,93.5C 356.5,93.8333 356.5,94.1667 356.5,94.5C 358.14,98.1518 360.474,101.152 363.5,103.5C 363.66,105.153 364.326,106.486 365.5,107.5C 366.376,111.582 368.043,115.249 370.5,118.5C 370.833,119.833 371.167,121.167 371.5,122.5C 374.159,129.828 376.493,137.161 378.5,144.5C 378.232,146.099 378.566,147.432 379.5,148.5C 379.229,153.434 379.896,158.1 381.5,162.5C 381.5,164.167 381.5,165.833 381.5,167.5C 380.203,172.267 380.203,176.934 381.5,181.5C 381.567,182.959 381.234,184.292 380.5,185.5C 378.89,196.889 375.89,207.889 371.5,218.5C 371.5,219.167 371.5,219.833 371.5,220.5C 370.833,220.5 370.5,220.833 370.5,221.5C 364.993,230.515 358.993,239.182 352.5,247.5C 352.167,248.167 351.833,248.833 351.5,249.5C 350.833,249.5 350.5,249.833 350.5,250.5C 349.833,250.5 349.5,250.833 349.5,251.5C 336.088,263.917 321.088,273.917 304.5,281.5C 300.031,282.435 295.697,283.768 291.5,285.5C 282.57,288.245 273.57,290.245 264.5,291.5C 262.833,291.5 261.167,291.5 259.5,291.5C 253.5,291.5 247.5,291.5 241.5,291.5C 240.167,291.5 238.833,291.5 237.5,291.5C 225.978,290.12 214.645,287.787 203.5,284.5C 202.71,283.599 201.71,282.932 200.5,282.5C 196.584,279.71 192.251,277.71 187.5,276.5C 186.205,275.512 184.872,274.512 183.5,273.5C 180.373,270.102 176.707,267.435 172.5,265.5C 171.5,265.167 170.833,264.5 170.5,263.5C 164.418,257.755 158.751,251.755 153.5,245.5C 152.89,244.609 152.557,243.609 152.5,242.5C 150.621,238.703 148.287,235.369 145.5,232.5C 145.167,231.167 144.833,229.833 144.5,228.5C 141.192,221.24 138.192,213.907 135.5,206.5C 134.766,205.292 134.433,203.959 134.5,202.5C 121.37,152.228 134.703,110.562 174.5,77.5C 176.027,77.573 177.027,76.9063 177.5,75.5C 185.923,69.9592 194.589,64.9592 203.5,60.5C 208.974,58.678 214.308,56.678 219.5,54.5C 227.773,52.5102 236.106,50.8435 244.5,49.5C 247.385,49.8064 250.052,49.4731 252.5,48.5 Z"/></g>
<g><path style="opacity:0.999" fill="#e9f1f4" d="M 219.5,54.5 C 214.308,56.678 208.974,58.678 203.5,60.5C 207.602,57.6079 211.935,54.9412 216.5,52.5C 217.518,53.1925 218.518,53.8592 219.5,54.5 Z"/></g>
<g><path style="opacity:1" fill="#f9fbfc" d="M 249.5,55.5 C 238.015,64.1368 226.349,72.6368 214.5,81C 213.304,81.6543 213.304,82.1543 214.5,82.5C 229.896,73.4735 245.23,64.4735 260.5,55.5C 265.75,55.3025 270.75,55.9692 275.5,57.5C 264.219,64.7844 253.219,72.451 242.5,80.5C 215.794,86.2184 195.127,100.552 180.5,123.5C 178.273,124.401 177.273,126.067 177.5,128.5C 177.267,130.062 176.6,131.395 175.5,132.5C 165.5,137.833 155.5,143.167 145.5,148.5C 145.867,143.992 146.867,139.659 148.5,135.5C 161.953,126.554 175.286,117.387 188.5,108C 187.092,107.685 185.759,108.018 184.5,109C 173.275,115.776 161.942,122.276 150.5,128.5C 151.704,123.105 153.704,118.105 156.5,113.5C 163.47,108.343 170.47,103.176 177.5,98C 171.494,100.84 165.494,104.007 159.5,107.5C 172.608,83.0762 192.608,67.0762 219.5,59.5C 216.94,62.4579 213.94,64.9579 210.5,67C 209.304,67.6543 209.304,68.1543 210.5,68.5C 216.139,65.5014 221.473,62.1681 226.5,58.5C 233.928,56.0287 241.595,55.0287 249.5,55.5 Z"/></g>
<g><path style="opacity:1" fill="#31aff6" d="M 249.5,55.5 C 253.167,55.5 256.833,55.5 260.5,55.5C 245.23,64.4735 229.896,73.4735 214.5,82.5C 213.304,82.1543 213.304,81.6543 214.5,81C 226.349,72.6368 238.015,64.1368 249.5,55.5 Z"/></g>
<g><path style="opacity:1" fill="#25abf4" d="M 275.5,57.5 C 278.609,57.2641 281.609,57.5975 284.5,58.5C 272.5,65.8333 260.5,73.1667 248.5,80.5C 246.5,80.5 244.5,80.5 242.5,80.5C 253.219,72.451 264.219,64.7844 275.5,57.5 Z"/></g>
<g><path style="opacity:1" fill="#3ab1f3" d="M 226.5,58.5 C 221.473,62.1681 216.139,65.5014 210.5,68.5C 209.304,68.1543 209.304,67.6543 210.5,67C 213.94,64.9579 216.94,62.4579 219.5,59.5C 221.764,58.7814 224.097,58.448 226.5,58.5 Z"/></g>
<g><path style="opacity:1" fill="#f5f8f9" d="M 284.5,58.5 C 288.395,59.4624 292.061,60.7957 295.5,62.5C 286.479,68.3444 277.812,74.6778 269.5,81.5C 262.529,80.7103 255.529,80.3769 248.5,80.5C 260.5,73.1667 272.5,65.8333 284.5,58.5 Z"/></g>
<g><path style="opacity:0.998" fill="#20aaf4" d="M 295.5,62.5 C 298.912,63.0421 301.912,64.3754 304.5,66.5C 294.7,71.5673 285.033,76.9007 275.5,82.5C 273.5,82.1667 271.5,81.8333 269.5,81.5C 277.812,74.6778 286.479,68.3444 295.5,62.5 Z"/></g>
<g><path style="opacity:1" fill="#f8fafc" d="M 304.5,66.5 C 307.485,67.3257 310.151,68.659 312.5,70.5C 304.795,76.1923 296.795,81.5256 288.5,86.5C 283.951,85.5368 279.617,84.2035 275.5,82.5C 285.033,76.9007 294.7,71.5673 304.5,66.5 Z"/></g>
<g><path style="opacity:1" fill="#34b1f5" d="M 312.5,70.5 C 313.71,70.9321 314.71,71.5987 315.5,72.5C 306.965,77.263 298.632,82.263 290.5,87.5C 289.508,87.6716 288.842,87.3382 288.5,86.5C 296.795,81.5256 304.795,76.1923 312.5,70.5 Z"/></g>
<g><path style="opacity:0.612" fill="#059feb" d="M 123.5,71.5 C 121.727,74.0599 119.727,76.3932 117.5,78.5C 118.054,74.9452 120.054,72.6118 123.5,71.5 Z"/></g>
<g><path style="opacity:1" fill="#bdc6cb" d="M 177.5,75.5 C 177.027,76.9063 176.027,77.573 174.5,77.5C 174.973,76.0937 175.973,75.427 177.5,75.5 Z"/></g>
<g><path style="opacity:1" fill="#28292a" d="M 242.5,80.5 C 244.5,80.5 246.5,80.5 248.5,80.5C 255.529,80.3769 262.529,80.7103 269.5,81.5C 271.5,81.8333 273.5,82.1667 275.5,82.5C 279.617,84.2035 283.951,85.5368 288.5,86.5C 288.842,87.3382 289.508,87.6716 290.5,87.5C 297.619,90.8931 304.619,94.5597 311.5,98.5C 311.5,99.1667 311.833,99.5 312.5,99.5C 315.28,102.064 318.28,104.397 321.5,106.5C 322.5,108.167 323.833,109.5 325.5,110.5C 326.8,113.432 328.8,115.766 331.5,117.5C 331.427,119.027 332.094,120.027 333.5,120.5C 334.917,123.669 336.583,126.669 338.5,129.5C 338.328,130.492 338.662,131.158 339.5,131.5C 340.658,134.989 341.991,138.322 343.5,141.5C 343.232,143.099 343.566,144.432 344.5,145.5C 344.956,149.664 345.622,153.664 346.5,157.5C 346.5,159.167 346.5,160.833 346.5,162.5C 346.55,175.197 344.55,187.53 340.5,199.5C 339.655,200.671 338.989,202.005 338.5,203.5C 319.358,243.281 287.691,261.615 243.5,258.5C 240.997,257.629 238.33,256.963 235.5,256.5C 223.892,254.076 212.892,250.076 202.5,244.5C 200.795,242.808 198.795,241.475 196.5,240.5C 193.859,238.196 191.192,235.862 188.5,233.5C 187.833,232.167 186.833,231.167 185.5,230.5C 183.138,227.808 180.804,225.141 178.5,222.5C 178.672,221.508 178.338,220.842 177.5,220.5C 176.071,217.304 174.405,214.304 172.5,211.5C 172.672,210.508 172.338,209.842 171.5,209.5C 170.5,206.167 169.5,202.833 168.5,199.5C 168.125,197.302 167.458,195.302 166.5,193.5C 166.54,190.119 166.207,186.786 165.5,183.5C 165.5,182.833 165.5,182.167 165.5,181.5C 165.285,173.046 165.952,164.712 167.5,156.5C 167.5,155.833 167.5,155.167 167.5,154.5C 169.097,148.709 171.097,143.042 173.5,137.5C 174.441,135.95 175.107,134.284 175.5,132.5C 176.6,131.395 177.267,130.062 177.5,128.5C 178.89,127.101 179.89,125.434 180.5,123.5C 195.127,100.552 215.794,86.2184 242.5,80.5 Z"/></g>
<g><path style="opacity:1" fill="#3db4f5" d="M 323.5,78.5 C 324.492,78.3284 325.158,78.6618 325.5,79.5C 318.365,83.2352 311.365,87.2352 304.5,91.5C 303.304,91.1543 303.304,90.6543 304.5,90C 310.889,86.1442 317.222,82.3109 323.5,78.5 Z"/></g>
<g><path style="opacity:1" fill="#f8fbfd" d="M 315.5,72.5 C 318.533,74.016 321.2,76.016 323.5,78.5C 317.222,82.3109 310.889,86.1442 304.5,90C 303.304,90.6543 303.304,91.1543 304.5,91.5C 311.365,87.2352 318.365,83.2352 325.5,79.5C 327.833,81.1667 329.833,83.1667 331.5,85.5C 324.87,89.8198 318.203,94.1532 311.5,98.5C 304.619,94.5597 297.619,90.8931 290.5,87.5C 298.632,82.263 306.965,77.263 315.5,72.5 Z"/></g>
<g><path style="opacity:0.925" fill="#01a6f4" d="M 372.5,71.5 C 375.55,73.5491 377.883,76.2157 379.5,79.5C 377.611,80.604 375.945,81.9373 374.5,83.5C 376.5,82.8333 378.5,82.1667 380.5,81.5C 383.471,83.4426 385.471,86.1092 386.5,89.5C 378.851,94.1397 371.184,98.8063 363.5,103.5C 360.474,101.152 358.14,98.1518 356.5,94.5C 357.833,94.1667 357.833,93.8333 356.5,93.5C 353.705,91.2486 351.372,88.5819 349.5,85.5C 357.369,81.0701 365.036,76.4034 372.5,71.5 Z M 374.5,83.5 C 373.341,85.2503 371.674,86.2503 369.5,86.5C 370.659,84.7497 372.326,83.7497 374.5,83.5 Z M 369.5,86.5 C 369.027,87.9063 368.027,88.573 366.5,88.5C 366.973,87.0937 367.973,86.427 369.5,86.5 Z"/></g>
<g><path style="opacity:1" fill="#f9fbfc" d="M 333.5,87.5 C 335.833,89.1667 337.833,91.1667 339.5,93.5C 333.891,98.3111 327.891,102.644 321.5,106.5C 318.28,104.397 315.28,102.064 312.5,99.5C 319.671,95.7495 326.671,91.7495 333.5,87.5 Z"/></g>
<g><path style="opacity:1" fill="#33b1f6" d="M 331.5,85.5 C 332.5,85.8333 333.167,86.5 333.5,87.5C 326.671,91.7495 319.671,95.7495 312.5,99.5C 311.833,99.5 311.5,99.1667 311.5,98.5C 318.203,94.1532 324.87,89.8198 331.5,85.5 Z"/></g>
<g><path style="opacity:1" fill="#0da7f5" d="M 260.5,91.5 C 247.994,97.2513 236.661,104.751 226.5,114C 239.813,107.22 252.813,99.7199 265.5,91.5C 270.398,91.6475 275.065,92.6475 279.5,94.5C 265.901,104.646 252.235,114.812 238.5,125C 237.304,125.654 237.304,126.154 238.5,126.5C 255.194,116.822 271.861,107.155 288.5,97.5C 292.151,98.6589 295.485,100.326 298.5,102.5C 284.38,112.114 270.38,121.947 256.5,132C 267.84,126.157 279.174,119.991 290.5,113.5C 294.701,110.9 299.034,108.566 303.5,106.5C 309.092,109.091 313.426,113.091 316.5,118.5C 305.681,126.47 294.681,134.304 283.5,142C 284.908,142.315 286.241,141.982 287.5,141C 298.031,134.569 308.697,128.402 319.5,122.5C 321.653,124.794 323.32,127.46 324.5,130.5C 312.546,137.817 300.879,145.651 289.5,154C 290.908,154.315 292.241,153.982 293.5,153C 301.172,147.829 309.172,143.162 317.5,139C 320.859,137.513 323.525,135.346 325.5,132.5C 329.202,138.967 331.536,145.967 332.5,153.5C 315.877,164.152 299.544,175.319 283.5,187C 284.908,187.315 286.241,186.982 287.5,186C 302.48,176.512 317.814,167.679 333.5,159.5C 335.25,171.013 334.583,182.347 331.5,193.5C 325.377,197.783 319.377,202.283 313.5,207C 319.326,204.754 324.993,201.92 330.5,198.5C 325.923,212.385 317.923,223.719 306.5,232.5C 299.668,235.412 293.334,239.079 287.5,243.5C 272.287,249.365 256.621,251.032 240.5,248.5C 243.899,246.969 247.233,245.135 250.5,243C 255.833,239 261.167,235 266.5,231C 267.696,230.346 267.696,229.846 266.5,229.5C 255.94,235.274 245.607,241.274 235.5,247.5C 224.077,245.122 214.077,240.122 205.5,232.5C 222.471,220.343 239.471,208.176 256.5,196C 237.462,206.025 218.795,216.858 200.5,228.5C 195.353,224.021 191.353,218.687 188.5,212.5C 199.619,205.221 210.619,197.721 221.5,190C 209.642,195.598 197.975,201.765 186.5,208.5C 184.657,206.147 183.323,203.48 182.5,200.5C 193.619,193.221 204.619,185.721 215.5,178C 214.092,177.685 212.759,178.018 211.5,179C 201.637,185.097 191.637,190.931 181.5,196.5C 179.215,190.486 177.881,184.152 177.5,177.5C 190.343,168.164 203.343,158.997 216.5,150C 215.092,149.685 213.759,150.018 212.5,151C 200.851,158.489 188.851,165.322 176.5,171.5C 176.5,167.833 176.5,164.167 176.5,160.5C 188.341,151.498 200.341,142.665 212.5,134C 200.642,139.598 188.975,145.765 177.5,152.5C 177.92,147.471 179.254,142.805 181.5,138.5C 187.336,133.5 193.336,128.667 199.5,124C 194.809,125.792 190.142,127.959 185.5,130.5C 190.82,118.676 199.153,109.51 210.5,103C 226.041,93.4757 242.707,89.6424 260.5,91.5 Z"/></g>
<g><path style="opacity:1" fill="#eff9fe" d="M 260.5,91.5 C 262.167,91.5 263.833,91.5 265.5,91.5C 252.813,99.7199 239.813,107.22 226.5,114C 236.661,104.751 247.994,97.2513 260.5,91.5 Z"/></g>
<g><path style="opacity:1" fill="#f2f9fd" d="M 279.5,94.5 C 282.785,94.9281 285.785,95.9281 288.5,97.5C 271.861,107.155 255.194,116.822 238.5,126.5C 237.304,126.154 237.304,125.654 238.5,125C 252.235,114.812 265.901,104.646 279.5,94.5 Z"/></g>
<g><path style="opacity:1" fill="#21aaf4" d="M 339.5,93.5 C 341.218,95.2228 342.551,97.2228 343.5,99.5C 337.536,103.152 331.536,106.819 325.5,110.5C 323.833,109.5 322.5,108.167 321.5,106.5C 327.891,102.644 333.891,98.3111 339.5,93.5 Z"/></g>
<g><path style="opacity:0.928" fill="#01a6f4" d="M 389.5,94.5 C 392.405,96.756 394.072,99.756 394.5,103.5C 386.156,108.003 378.156,113.003 370.5,118.5C 368.043,115.249 366.376,111.582 365.5,107.5C 373.5,103.167 381.5,98.8333 389.5,94.5 Z"/></g>
<g><path style="opacity:1" fill="#f7fafc" d="M 343.5,99.5 C 345.9,101.296 347.567,103.63 348.5,106.5C 343.352,110.911 337.686,114.578 331.5,117.5C 328.8,115.766 326.8,113.432 325.5,110.5C 331.536,106.819 337.536,103.152 343.5,99.5 Z"/></g>
<g><path style="opacity:0.949" fill="#0e8bc8" d="M 105.5,100.5 C 105.25,102.674 104.25,104.341 102.5,105.5C 102.273,103.067 103.273,101.401 105.5,100.5 Z"/></g>
<g><path style="opacity:1" fill="#eff8fd" d="M 298.5,102.5 C 299.71,102.932 300.71,103.599 301.5,104.5C 297.499,107.175 293.832,110.175 290.5,113.5C 279.174,119.991 267.84,126.157 256.5,132C 270.38,121.947 284.38,112.114 298.5,102.5 Z"/></g>
<g><path style="opacity:1" fill="#34aef2" d="M 156.5,113.5 C 156.992,111.181 157.992,109.181 159.5,107.5C 165.494,104.007 171.494,100.84 177.5,98C 170.47,103.176 163.47,108.343 156.5,113.5 Z"/></g>
<g><path style="opacity:1" fill="#2eadf4" d="M 348.5,106.5 C 349.674,107.514 350.34,108.847 350.5,110.5C 344.833,113.833 339.167,117.167 333.5,120.5C 332.094,120.027 331.427,119.027 331.5,117.5C 337.686,114.578 343.352,110.911 348.5,106.5 Z"/></g>
<g><path style="opacity:1" fill="#8ed6f9" d="M 301.5,104.5 C 302.5,104.833 303.167,105.5 303.5,106.5C 299.034,108.566 294.701,110.9 290.5,113.5C 293.832,110.175 297.499,107.175 301.5,104.5 Z"/></g>
<g><path style="opacity:1" fill="#f8fafb" d="M 350.5,110.5 C 352.588,112.336 353.921,114.669 354.5,117.5C 349.167,121.5 343.833,125.5 338.5,129.5C 336.583,126.669 334.917,123.669 333.5,120.5C 339.167,117.167 344.833,113.833 350.5,110.5 Z"/></g>
<g><path style="opacity:1" fill="#2faef4" d="M 148.5,135.5 C 148.41,132.848 149.076,130.515 150.5,128.5C 161.942,122.276 173.275,115.776 184.5,109C 185.759,108.018 187.092,107.685 188.5,108C 175.286,117.387 161.953,126.554 148.5,135.5 Z"/></g>
<g><path style="opacity:1" fill="#eff8fd" d="M 316.5,118.5 C 317.974,119.436 318.974,120.77 319.5,122.5C 308.697,128.402 298.031,134.569 287.5,141C 286.241,141.982 284.908,142.315 283.5,142C 294.681,134.304 305.681,126.47 316.5,118.5 Z"/></g>
<g><path style="opacity:1" fill="#2bacf3" d="M 354.5,117.5 C 355.931,118.78 356.598,120.447 356.5,122.5C 350.702,125.233 345.035,128.233 339.5,131.5C 338.662,131.158 338.328,130.492 338.5,129.5C 343.833,125.5 349.167,121.5 354.5,117.5 Z"/></g>
<g><path style="opacity:0.934" fill="#01a6f4" d="M 396.5,108.5 C 397.376,108.369 398.043,108.702 398.5,109.5C 399.513,112.188 400.513,114.854 401.5,117.5C 401.062,117.435 400.728,117.601 400.5,118C 403.487,120.785 404.821,124.285 404.5,128.5C 396.08,134.257 387.414,139.59 378.5,144.5C 376.493,137.161 374.159,129.828 371.5,122.5C 379.995,118.087 388.328,113.42 396.5,108.5 Z M 398.5,119.5 C 398.027,120.906 397.027,121.573 395.5,121.5C 395.973,120.094 396.973,119.427 398.5,119.5 Z"/></g>
<g><path style="opacity:1" fill="#f8fbfc" d="M 356.5,122.5 C 358.585,124.684 359.585,127.351 359.5,130.5C 354.167,134.167 348.833,137.833 343.5,141.5C 341.991,138.322 340.658,134.989 339.5,131.5C 345.035,128.233 350.702,125.233 356.5,122.5 Z"/></g>
<g><path style="opacity:1" fill="#2e98d0" d="M 180.5,123.5 C 179.89,125.434 178.89,127.101 177.5,128.5C 177.273,126.067 178.273,124.401 180.5,123.5 Z"/></g>
<g><path style="opacity:1" fill="#eaf5fb" d="M 181.5,138.5 C 181.896,135.279 183.229,132.612 185.5,130.5C 190.142,127.959 194.809,125.792 199.5,124C 193.336,128.667 187.336,133.5 181.5,138.5 Z"/></g>
<g><path style="opacity:1" fill="#ecf7fd" d="M 324.5,130.5 C 325.338,130.842 325.672,131.508 325.5,132.5C 323.525,135.346 320.859,137.513 317.5,139C 309.172,143.162 301.172,147.829 293.5,153C 292.241,153.982 290.908,154.315 289.5,154C 300.879,145.651 312.546,137.817 324.5,130.5 Z"/></g>
<g><path style="opacity:1" fill="#21aaf3" d="M 359.5,130.5 C 360.931,131.78 361.598,133.447 361.5,135.5C 356.033,139.071 350.367,142.404 344.5,145.5C 343.566,144.432 343.232,143.099 343.5,141.5C 348.833,137.833 354.167,134.167 359.5,130.5 Z"/></g>
<g><path style="opacity:1" fill="#24abf5" d="M 175.5,132.5 C 175.107,134.284 174.441,135.95 173.5,137.5C 164.167,143.5 154.833,149.5 145.5,155.5C 145.5,153.167 145.5,150.833 145.5,148.5C 155.5,143.167 165.5,137.833 175.5,132.5 Z"/></g>
<g><path style="opacity:0.929" fill="#01a6f5" d="M 406.5,133.5 C 408.222,136.92 408.889,140.586 408.5,144.5C 399.291,150.265 390.291,156.265 381.5,162.5C 379.896,158.1 379.229,153.434 379.5,148.5C 388.634,143.766 397.634,138.766 406.5,133.5 Z"/></g>
<g><path style="opacity:1" fill="#f6f9fb" d="M 361.5,135.5 C 362.768,137.905 363.435,140.572 363.5,143.5C 363.489,145.017 362.823,146.184 361.5,147C 356.084,150.03 351.084,153.53 346.5,157.5C 345.622,153.664 344.956,149.664 344.5,145.5C 350.367,142.404 356.033,139.071 361.5,135.5 Z"/></g>
<g><path style="opacity:1" fill="#f2f9fd" d="M 176.5,160.5 C 177.092,157.873 177.425,155.206 177.5,152.5C 188.975,145.765 200.642,139.598 212.5,134C 200.341,142.665 188.341,151.498 176.5,160.5 Z"/></g>
<g><path style="opacity:1" fill="#f9fcfd" d="M 173.5,137.5 C 171.097,143.042 169.097,148.709 167.5,154.5C 159.996,159.087 152.329,163.42 144.5,167.5C 144.237,163.4 144.57,159.4 145.5,155.5C 154.833,149.5 164.167,143.5 173.5,137.5 Z"/></g>
<g><path style="opacity:1" fill="#24a9f2" d="M 363.5,143.5 C 364.913,146.219 365.58,149.219 365.5,152.5C 359.167,155.833 352.833,159.167 346.5,162.5C 346.5,160.833 346.5,159.167 346.5,157.5C 351.084,153.53 356.084,150.03 361.5,147C 362.823,146.184 363.489,145.017 363.5,143.5 Z"/></g>
<g><path style="opacity:0.928" fill="#03a3f1" d="M 409.5,151.5 C 410.117,151.611 410.617,151.944 411,152.5C 411.498,155.817 411.665,159.15 411.5,162.5C 401.19,168.323 391.19,174.656 381.5,181.5C 380.203,176.934 380.203,172.267 381.5,167.5C 390.833,162.167 400.167,156.833 409.5,151.5 Z"/></g>
<g><path style="opacity:1" fill="#f8f9f9" d="M 365.5,152.5 C 367.565,162.454 367.898,172.454 366.5,182.5C 357.833,188.167 349.167,193.833 340.5,199.5C 344.55,187.53 346.55,175.197 346.5,162.5C 352.833,159.167 359.167,155.833 365.5,152.5 Z"/></g>
<g><path style="opacity:1" fill="#edf7fc" d="M 332.5,153.5 C 333.341,155.379 333.675,157.379 333.5,159.5C 317.814,167.679 302.48,176.512 287.5,186C 286.241,186.982 284.908,187.315 283.5,187C 299.544,175.319 315.877,164.152 332.5,153.5 Z"/></g>
<g><path style="opacity:1" fill="#e8f6fd" d="M 177.5,177.5 C 177.167,175.5 176.833,173.5 176.5,171.5C 188.851,165.322 200.851,158.489 212.5,151C 213.759,150.018 215.092,149.685 216.5,150C 203.343,158.997 190.343,168.164 177.5,177.5 Z"/></g>
<g><path style="opacity:1" fill="#3db5f7" d="M 167.5,154.5 C 167.5,155.167 167.5,155.833 167.5,156.5C 159.695,160.904 152.028,165.571 144.5,170.5C 144.5,169.5 144.5,168.5 144.5,167.5C 152.329,163.42 159.996,159.087 167.5,154.5 Z"/></g>
<g><path style="opacity:0.931" fill="#02a5f3" d="M 411.5,168.5 C 412.791,172.399 412.791,176.399 411.5,180.5C 409.973,180.427 408.973,181.094 408.5,182.5C 409.609,182.443 410.609,182.11 411.5,181.5C 411.706,185.898 411.373,190.232 410.5,194.5C 397.5,202.5 384.5,210.5 371.5,218.5C 375.89,207.889 378.89,196.889 380.5,185.5C 390.967,180.1 401.3,174.433 411.5,168.5 Z"/></g>
<g><path style="opacity:1" fill="#f7fafc" d="M 167.5,156.5 C 165.952,164.712 165.285,173.046 165.5,181.5C 159.298,185.101 152.964,188.434 146.5,191.5C 146.296,188.482 145.963,185.482 145.5,182.5C 148.975,180.593 152.309,178.426 155.5,176C 151.868,176.646 148.535,178.146 145.5,180.5C 144.521,177.375 144.187,174.042 144.5,170.5C 152.028,165.571 159.695,160.904 167.5,156.5 Z"/></g>
<g><path style="opacity:1" fill="#41b7f7" d="M 145.5,182.5 C 145.5,181.833 145.5,181.167 145.5,180.5C 148.535,178.146 151.868,176.646 155.5,176C 152.309,178.426 148.975,180.593 145.5,182.5 Z"/></g>
<g><path style="opacity:0.998" fill="#f8fafb" d="M 165.5,183.5 C 166.207,186.786 166.54,190.119 166.5,193.5C 161.033,197.071 155.367,200.404 149.5,203.5C 148.213,200.302 147.547,196.969 147.5,193.5C 153.738,190.596 159.738,187.262 165.5,183.5 Z"/></g>
<g><path style="opacity:1" fill="#eff9fe" d="M 182.5,200.5 C 182.167,199.167 181.833,197.833 181.5,196.5C 191.637,190.931 201.637,185.097 211.5,179C 212.759,178.018 214.092,177.685 215.5,178C 204.619,185.721 193.619,193.221 182.5,200.5 Z"/></g>
<g><path style="opacity:1" fill="#2eadf4" d="M 366.5,182.5 C 366.675,184.621 366.341,186.621 365.5,188.5C 356.339,193.246 347.339,198.246 338.5,203.5C 338.989,202.005 339.655,200.671 340.5,199.5C 349.167,193.833 357.833,188.167 366.5,182.5 Z"/></g>
<g><path style="opacity:0.999" fill="#fafbfc" d="M 365.5,188.5 C 364.255,203.489 359.921,217.489 352.5,230.5C 350.973,230.427 349.973,231.094 349.5,232.5C 350.167,232.5 350.833,232.5 351.5,232.5C 337.745,256.251 317.745,272.251 291.5,280.5C 293.237,278.45 295.237,276.617 297.5,275C 297.167,274.833 296.833,274.667 296.5,274.5C 291.935,276.941 287.602,279.608 283.5,282.5C 276.15,283.354 268.817,284.354 261.5,285.5C 268.982,279.53 276.649,273.697 284.5,268C 273.471,273.018 262.804,278.851 252.5,285.5C 247.405,285.779 242.405,285.445 237.5,284.5C 239.927,282.442 242.593,280.609 245.5,279C 246.696,278.346 246.696,277.846 245.5,277.5C 241.524,280.322 237.191,282.322 232.5,283.5C 227.391,282.778 222.391,281.612 217.5,280C 214.826,279.33 212.493,278.163 210.5,276.5C 219.869,271.31 228.869,265.477 237.5,259C 239.473,258.505 241.473,258.338 243.5,258.5C 287.691,261.615 319.358,243.281 338.5,203.5C 347.339,198.246 356.339,193.246 365.5,188.5 Z"/></g>
<g><path style="opacity:0.972" fill="#35aff3" d="M 165.5,181.5 C 165.5,182.167 165.5,182.833 165.5,183.5C 159.738,187.262 153.738,190.596 147.5,193.5C 146.662,193.158 146.328,192.492 146.5,191.5C 152.964,188.434 159.298,185.101 165.5,181.5 Z"/></g>
<g><path style="opacity:1" fill="#23a8f0" d="M 166.5,193.5 C 167.458,195.302 168.125,197.302 168.5,199.5C 162.833,202.833 157.167,206.167 151.5,209.5C 150.27,207.703 149.604,205.703 149.5,203.5C 155.367,200.404 161.033,197.071 166.5,193.5 Z"/></g>
<g><path style="opacity:1" fill="#e9f6fd" d="M 331.5,193.5 C 331.371,195.216 331.038,196.883 330.5,198.5C 324.993,201.92 319.326,204.754 313.5,207C 319.377,202.283 325.377,197.783 331.5,193.5 Z"/></g>
<g><path style="opacity:1" fill="#ecf7fd" d="M 188.5,212.5 C 187.326,211.486 186.66,210.153 186.5,208.5C 197.975,201.765 209.642,195.598 221.5,190C 210.619,197.721 199.619,205.221 188.5,212.5 Z"/></g>
<g><path style="opacity:0.929" fill="#01a6f4" d="M 409.5,199.5 C 409.515,204.428 408.515,209.094 406.5,213.5C 388.472,224.844 370.472,236.177 352.5,247.5C 358.993,239.182 364.993,230.515 370.5,221.5C 371.167,221.5 371.5,221.167 371.5,220.5C 384.167,213.5 396.833,206.5 409.5,199.5 Z"/></g>
<g><path style="opacity:1" fill="#f9fbfc" d="M 168.5,199.5 C 169.5,202.833 170.5,206.167 171.5,209.5C 165.702,212.233 160.035,215.233 154.5,218.5C 153.302,215.574 152.302,212.574 151.5,209.5C 157.167,206.167 162.833,202.833 168.5,199.5 Z"/></g>
<g><path style="opacity:1" fill="#f2fafe" d="M 205.5,232.5 C 203.833,231.167 202.167,229.833 200.5,228.5C 218.795,216.858 237.462,206.025 256.5,196C 239.471,208.176 222.471,220.343 205.5,232.5 Z"/></g>
<g><path style="opacity:0.904" fill="#23a9f2" d="M 171.5,209.5 C 172.338,209.842 172.672,210.508 172.5,211.5C 167.131,214.847 161.797,218.181 156.5,221.5C 155.599,220.71 154.932,219.71 154.5,218.5C 160.035,215.233 165.702,212.233 171.5,209.5 Z"/></g>
<g><path style="opacity:0.974" fill="#f7f9fa" d="M 172.5,211.5 C 174.405,214.304 176.071,217.304 177.5,220.5C 171.992,223.755 166.325,226.755 160.5,229.5C 158.127,227.421 156.794,224.754 156.5,221.5C 161.797,218.181 167.131,214.847 172.5,211.5 Z"/></g>
<g><path style="opacity:0.922" fill="#01a5f4" d="M 135.5,206.5 C 138.192,213.907 141.192,221.24 144.5,228.5C 134.967,234.099 125.3,239.433 115.5,244.5C 113.408,241.912 112.075,238.912 111.5,235.5C 114.135,234.189 116.469,232.522 118.5,230.5C 116.02,231.242 113.687,232.242 111.5,233.5C 109.425,230.925 108.091,227.925 107.5,224.5C 116.833,218.5 126.167,212.5 135.5,206.5 Z M 123.5,227.5 C 123.027,228.906 122.027,229.573 120.5,229.5C 120.973,228.094 121.973,227.427 123.5,227.5 Z"/></g>
<g><path style="opacity:0.975" fill="#01a6f5" d="M 405.5,219.5 C 404.428,224.715 402.762,229.715 400.5,234.5C 399.833,234.5 399.5,234.833 399.5,235.5C 392.289,239.054 385.622,243.387 379.5,248.5C 386.461,245.353 393.127,241.687 399.5,237.5C 392.654,256.869 383.654,274.535 372.5,290.5C 367.616,299.378 361.616,307.378 354.5,314.5C 353.167,314.833 353.167,315.167 354.5,315.5C 331.454,343.048 308.954,371.048 287,399.5C 274.776,416.609 264.609,434.942 256.5,454.5C 255.833,455.833 255.167,455.833 254.5,454.5C 251.154,446.479 247.821,438.479 244.5,430.5C 249.445,427.189 253.778,423.189 257.5,418.5C 252.368,420.9 247.368,423.566 242.5,426.5C 238.024,419.565 233.524,412.565 229,405.5C 227.991,403.975 227.491,402.308 227.5,400.5C 228.167,400.5 228.5,400.167 228.5,399.5C 224.242,398.575 221.575,395.909 220.5,391.5C 224.382,389.066 228.048,386.399 231.5,383.5C 227.527,385.487 223.527,387.487 219.5,389.5C 216.41,387.732 214.41,385.065 213.5,381.5C 215.389,380.396 217.055,379.063 218.5,377.5C 216.181,377.992 214.181,378.992 212.5,380.5C 208.684,376.239 204.851,371.906 201,367.5C 200.517,366.552 200.351,365.552 200.5,364.5C 201.183,363.356 200.849,363.356 199.5,364.5C 197.016,362.2 195.016,359.533 193.5,356.5C 203.167,349.833 212.833,343.167 222.5,336.5C 212.033,341.9 201.7,347.567 191.5,353.5C 189.983,353.489 188.816,352.823 188,351.5C 186.579,349.595 185.412,347.595 184.5,345.5C 205.355,332.91 225.688,319.576 245.5,305.5C 224.167,317.5 202.833,329.5 181.5,341.5C 180.504,341.586 179.671,341.252 179,340.5C 177.25,338.266 175.75,335.932 174.5,333.5C 192.684,322.912 210.351,311.579 227.5,299.5C 209.032,309.568 190.699,319.901 172.5,330.5C 170.983,330.489 169.816,329.823 169,328.5C 167.579,326.595 166.412,324.595 165.5,322.5C 166.167,322.5 166.5,322.167 166.5,321.5C 162.203,320.536 159.536,317.87 158.5,313.5C 173.67,304.083 188.67,294.416 203.5,284.5C 214.645,287.787 225.978,290.12 237.5,291.5C 237.369,292.239 237.536,292.906 238,293.5C 239.302,292.915 240.469,292.249 241.5,291.5C 247.5,291.5 253.5,291.5 259.5,291.5C 260.659,293.377 262.326,293.877 264.5,293C 265.738,292.31 265.738,291.81 264.5,291.5C 273.57,290.245 282.57,288.245 291.5,285.5C 292.659,287.377 294.326,287.877 296.5,287C 299.07,284.913 301.737,283.08 304.5,281.5C 321.088,273.917 336.088,263.917 349.5,251.5C 350.167,251.5 350.5,251.167 350.5,250.5C 351.167,250.5 351.5,250.167 351.5,249.5C 369.5,239.5 387.5,229.5 405.5,219.5 Z M 379.5,248.5 C 378.341,250.25 376.674,251.25 374.5,251.5C 375.659,249.75 377.326,248.75 379.5,248.5 Z M 230.5,297.5 C 230.027,298.906 229.027,299.573 227.5,299.5C 227.973,298.094 228.973,297.427 230.5,297.5 Z M 171.5,318.5 C 170.341,320.25 168.674,321.25 166.5,321.5C 167.659,319.75 169.326,318.75 171.5,318.5 Z M 227.5,333.5 C 227.027,334.906 226.027,335.573 224.5,335.5C 224.973,334.094 225.973,333.427 227.5,333.5 Z M 221.5,375.5 C 221.027,376.906 220.027,377.573 218.5,377.5C 218.973,376.094 219.973,375.427 221.5,375.5 Z M 231.5,397.5 C 231.027,398.906 230.027,399.573 228.5,399.5C 228.973,398.094 229.973,397.427 231.5,397.5 Z"/></g>
<g><path style="opacity:1" fill="#29acf4" d="M 177.5,220.5 C 178.338,220.842 178.672,221.508 178.5,222.5C 173.552,226.648 168.218,230.314 162.5,233.5C 161.326,232.486 160.66,231.153 160.5,229.5C 166.325,226.755 171.992,223.755 177.5,220.5 Z"/></g>
<g><path style="opacity:1" fill="#f8fbfc" d="M 178.5,222.5 C 180.804,225.141 183.138,227.808 185.5,230.5C 179.298,234.101 172.964,237.434 166.5,240.5C 164.902,238.302 163.569,235.969 162.5,233.5C 168.218,230.314 173.552,226.648 178.5,222.5 Z"/></g>
<g><path style="opacity:1" fill="#25a9f2" d="M 185.5,230.5 C 186.833,231.167 187.833,232.167 188.5,233.5C 182.881,237.983 176.881,241.983 170.5,245.5C 168.937,244.055 167.604,242.389 166.5,240.5C 172.964,237.434 179.298,234.101 185.5,230.5 Z"/></g>
<g><path style="opacity:0.059" fill="#33b0f0" d="M 352.5,230.5 C 352.167,231.167 351.833,231.833 351.5,232.5C 350.833,232.5 350.167,232.5 349.5,232.5C 349.973,231.094 350.973,230.427 352.5,230.5 Z"/></g>
<g><path style="opacity:0.933" fill="#01a5f3" d="M 145.5,232.5 C 148.287,235.369 150.621,238.703 152.5,242.5C 142.517,248.139 132.517,253.805 122.5,259.5C 120.076,256.992 118.41,253.992 117.5,250.5C 126.833,244.5 136.167,238.5 145.5,232.5 Z"/></g>
<g><path style="opacity:0.035" fill="#45b7fc" d="M 349.5,232.5 C 348.998,234.085 347.998,234.585 346.5,234C 347.244,232.961 348.244,232.461 349.5,232.5 Z"/></g>
<g><path style="opacity:1" fill="#f8fafc" d="M 188.5,233.5 C 191.192,235.862 193.859,238.196 196.5,240.5C 190.118,244.863 183.451,248.863 176.5,252.5C 173.8,250.766 171.8,248.432 170.5,245.5C 176.881,241.983 182.881,237.983 188.5,233.5 Z"/></g>
<g><path style="opacity:1" fill="#edf7fc" d="M 240.5,248.5 C 238.708,248.634 237.042,248.301 235.5,247.5C 245.607,241.274 255.94,235.274 266.5,229.5C 267.696,229.846 267.696,230.346 266.5,231C 261.167,235 255.833,239 250.5,243C 247.233,245.135 243.899,246.969 240.5,248.5 Z"/></g>
<g><path style="opacity:1" fill="#dfe7eb" d="M 306.5,232.5 C 300.961,237.44 294.627,241.106 287.5,243.5C 293.334,239.079 299.668,235.412 306.5,232.5 Z"/></g>
<g><path style="opacity:0.953" fill="#17a8f5" d="M 196.5,240.5 C 198.795,241.475 200.795,242.808 202.5,244.5C 196.031,247.902 189.697,251.569 183.5,255.5C 182.833,255.5 182.5,255.833 182.5,256.5C 182.167,256.5 181.833,256.5 181.5,256.5C 179.251,255.92 177.585,254.587 176.5,252.5C 183.451,248.863 190.118,244.863 196.5,240.5 Z"/></g>
<g><path style="opacity:0.99" fill="#fbfcfc" d="M 202.5,244.5 C 212.892,250.076 223.892,254.076 235.5,256.5C 225.5,262.5 215.5,268.5 205.5,274.5C 196.744,270.587 188.91,265.253 182,258.5C 181.536,257.906 181.369,257.239 181.5,256.5C 181.833,256.5 182.167,256.5 182.5,256.5C 183.167,256.5 183.5,256.167 183.5,255.5C 189.697,251.569 196.031,247.902 202.5,244.5 Z"/></g>
<g><path style="opacity:0.928" fill="#01a6f4" d="M 153.5,245.5 C 158.751,251.755 164.418,257.755 170.5,263.5C 159.184,269.805 147.85,276.139 136.5,282.5C 133.551,280.627 131.551,277.961 130.5,274.5C 131.5,274.167 132.167,273.5 132.5,272.5C 131.508,272.328 130.842,272.662 130.5,273.5C 127.55,271.272 125.884,268.272 125.5,264.5C 134.833,258.167 144.167,251.833 153.5,245.5 Z M 137.5,269.5 C 137.027,270.906 136.027,271.573 134.5,271.5C 134.973,270.094 135.973,269.427 137.5,269.5 Z"/></g>
<g><path style="opacity:0.998" fill="#27aaf2" d="M 235.5,256.5 C 238.33,256.963 240.997,257.629 243.5,258.5C 241.473,258.338 239.473,258.505 237.5,259C 228.869,265.477 219.869,271.31 210.5,276.5C 208.447,276.598 206.78,275.931 205.5,274.5C 215.5,268.5 225.5,262.5 235.5,256.5 Z"/></g>
<g><path style="opacity:0.928" fill="#01a6f5" d="M 172.5,265.5 C 176.707,267.435 180.373,270.102 183.5,273.5C 170.833,280.833 158.167,288.167 145.5,295.5C 142.442,293.757 140.442,291.09 139.5,287.5C 150.5,280.167 161.5,272.833 172.5,265.5 Z"/></g>
<g><path style="opacity:1" fill="#2eaef5" d="M 261.5,285.5 C 258.5,285.5 255.5,285.5 252.5,285.5C 262.804,278.851 273.471,273.018 284.5,268C 276.649,273.697 268.982,279.53 261.5,285.5 Z"/></g>
<g><path style="opacity:0.936" fill="#01a6f4" d="M 187.5,276.5 C 192.251,277.71 196.584,279.71 200.5,282.5C 185.666,291.752 170.666,300.752 155.5,309.5C 152.502,307.497 150.169,304.83 148.5,301.5C 161.33,292.917 174.33,284.584 187.5,276.5 Z"/></g>
<g><path style="opacity:1" fill="#2facf0" d="M 291.5,280.5 C 288.779,280.963 286.112,281.629 283.5,282.5C 287.602,279.608 291.935,276.941 296.5,274.5C 296.833,274.667 297.167,274.833 297.5,275C 295.237,276.617 293.237,278.45 291.5,280.5 Z"/></g>
<g><path style="opacity:1" fill="#44ade7" d="M 237.5,284.5 C 235.585,284.784 233.919,284.451 232.5,283.5C 237.191,282.322 241.524,280.322 245.5,277.5C 246.696,277.846 246.696,278.346 245.5,279C 242.593,280.609 239.927,282.442 237.5,284.5 Z"/></g>
<g><path style="opacity:1" fill="#d4e2e9" d="M 304.5,281.5 C 301.737,283.08 299.07,284.913 296.5,287C 294.326,287.877 292.659,287.377 291.5,285.5C 295.697,283.768 300.031,282.435 304.5,281.5 Z"/></g>
<g><path style="opacity:1" fill="#e5ecef" d="M 237.5,291.5 C 238.833,291.5 240.167,291.5 241.5,291.5C 240.469,292.249 239.302,292.915 238,293.5C 237.536,292.906 237.369,292.239 237.5,291.5 Z"/></g>
<g><path style="opacity:1" fill="#d2edfb" d="M 259.5,291.5 C 261.167,291.5 262.833,291.5 264.5,291.5C 265.738,291.81 265.738,292.31 264.5,293C 262.326,293.877 260.659,293.377 259.5,291.5 Z"/></g>
<g><path style="opacity:0.18" fill="#0b8ccc" d="M 362.5,319.5 C 362.573,321.027 361.906,322.027 360.5,322.5C 360.427,320.973 361.094,319.973 362.5,319.5 Z"/></g>
<g><path style="opacity:0.843" fill="#03a0ec" d="M 206.5,454.5 C 203.659,455.669 200.659,456.669 197.5,457.5C 199.902,454.455 202.902,453.455 206.5,454.5 Z"/></g>
<g><path style="opacity:0.976" fill="#00a5f4" d="M 292.5,460.5 C 289.568,461.8 287.234,463.8 285.5,466.5C 289.335,464.75 293.001,462.75 296.5,460.5C 301.223,461.37 305.556,463.036 309.5,465.5C 306.833,467.5 304.5,469.833 302.5,472.5C 305.833,470.833 309.167,469.167 312.5,467.5C 317.497,468.755 321.663,471.422 325,475.5C 325.667,477.5 325.667,479.5 325,481.5C 322.674,483.066 320.508,484.732 318.5,486.5C 317.508,486.328 316.842,486.662 316.5,487.5C 307.987,491.715 298.987,494.548 289.5,496C 278.874,497.608 268.207,498.774 257.5,499.5C 260.833,496.167 264.167,492.833 267.5,489.5C 261.17,492.33 255.17,495.663 249.5,499.5C 243.402,500.117 237.735,499.45 232.5,497.5C 235.729,495.058 238.729,492.392 241.5,489.5C 236.5,491.664 231.833,494.331 227.5,497.5C 216.966,495.303 206.633,492.469 196.5,489C 192.371,486.864 188.871,484.031 186,480.5C 185.038,475.767 186.538,471.934 190.5,469C 195.715,465.391 201.381,462.891 207.5,461.5C 207.167,462.167 206.833,462.833 206.5,463.5C 208.027,463.573 209.027,462.906 209.5,461.5C 210.492,461.672 211.158,461.338 211.5,460.5C 221.152,456.794 231.152,455.627 241.5,457C 242.35,462.699 245.017,467.366 249.5,471C 259.971,472.22 266.304,467.554 268.5,457C 276.204,456.92 283.871,457.587 291.5,459C 292.056,459.383 292.389,459.883 292.5,460.5 Z M 292.5,460.5 C 293.833,460.5 295.167,460.5 296.5,460.5C 293.001,462.75 289.335,464.75 285.5,466.5C 287.234,463.8 289.568,461.8 292.5,460.5 Z M 207.5,461.5 C 208.167,461.5 208.833,461.5 209.5,461.5C 209.027,462.906 208.027,463.573 206.5,463.5C 206.833,462.833 207.167,462.167 207.5,461.5 Z M 241.5,489.5 C 238.729,492.392 235.729,495.058 232.5,497.5C 230.833,497.5 229.167,497.5 227.5,497.5C 231.833,494.331 236.5,491.664 241.5,489.5 Z M 267.5,489.5 C 264.167,492.833 260.833,496.167 257.5,499.5C 254.833,499.5 252.167,499.5 249.5,499.5C 255.17,495.663 261.17,492.33 267.5,489.5 Z"/></g>
</svg>
