<?xml version="1.0" encoding="UTF-8"?>
<!DOCTYPE svg PUBLIC "-//W3C//DTD SVG 1.1//EN" "http://www.w3.org/Graphics/SVG/1.1/DTD/svg11.dtd">
<svg xmlns="http://www.w3.org/2000/svg" version="1.1" width="512px" height="512px" style="shape-rendering:geometricPrecision; text-rendering:geometricPrecision; image-rendering:optimizeQuality; fill-rule:evenodd; clip-rule:evenodd" xmlns:xlink="http://www.w3.org/1999/xlink">
<g><path style="opacity:0.6" fill="#44a3da" d="M 239.5,6.5 C 236.545,7.15872 233.545,7.49205 230.5,7.5C 232.164,6.001 234.164,5.001 236.5,4.5C 238.038,4.45344 239.038,5.12011 239.5,6.5 Z"/></g>
<g><path style="opacity:0.97" fill="#272727" d="M 287.5,8.5 C 289.838,10.0395 292.505,10.7062 295.5,10.5C 297.216,10.6287 298.883,10.962 300.5,11.5C 302.22,12.8641 304.22,13.8641 306.5,14.5C 307.107,14.3764 307.44,14.0431 307.5,13.5C 310.421,14.696 313.421,15.696 316.5,16.5C 317.635,18.2132 319.302,18.8799 321.5,18.5C 382.755,43.2748 413.421,88.9414 413.5,155.5C 412.12,196.473 402.62,235.473 385,272.5C 366.016,312.468 341.182,348.301 310.5,380C 334.624,383.066 358.624,387.066 382.5,392C 422.028,403.888 434.861,429.388 421,468.5C 415.8,476.018 408.966,481.518 400.5,485C 368.885,496.724 336.218,503.724 302.5,506C 265.165,509.31 227.831,509.31 190.5,506C 161.703,503.968 134.37,496.635 108.5,484C 103.713,481.045 99.3801,477.545 95.5,473.5C 95.2624,471.596 94.2624,470.262 92.5,469.5C 87.3336,461.406 84.6669,452.406 84.5,442.5C 84.7119,432.962 87.3785,424.295 92.5,416.5C 93.8333,415.833 94.8333,414.833 95.5,413.5C 95.8588,411.629 96.8588,410.129 98.5,409C 108.718,401.225 120.051,395.558 132.5,392C 154.416,387.063 176.416,383.063 198.5,380C 169.762,346.581 144.928,310.414 124,271.5C 110.591,245.274 101.591,217.607 97,188.5C 88.6654,129.301 107.165,80.6348 152.5,42.5C 156.352,40.0753 160.019,37.4086 163.5,34.5C 170.004,29.7448 177.004,25.7448 184.5,22.5C 191.016,20.0695 197.35,17.4028 203.5,14.5C 212.275,11.3894 221.275,9.05609 230.5,7.5C 233.545,7.49205 236.545,7.15872 239.5,6.5C 255.692,3.87842 271.692,4.54509 287.5,8.5 Z M 248.5,13.5 C 234.666,22.5873 220.333,30.9206 205.5,38.5C 215.833,30.5 226.167,22.5 236.5,14.5C 240.466,13.8379 244.466,13.5045 248.5,13.5 Z M 268.5,14.5 C 270.735,14.2053 272.735,14.5386 274.5,15.5C 259.998,24.9211 244.998,33.5878 229.5,41.5C 242.201,32.1427 255.201,23.1427 268.5,14.5 Z M 302.5,21.5 C 303.492,21.3284 304.158,21.6618 304.5,22.5C 301.76,24.5595 298.76,26.2262 295.5,27.5C 297.833,25.5 300.167,23.5 302.5,21.5 Z M 295.5,27.5 C 294.341,29.2503 292.674,30.2503 290.5,30.5C 291.659,28.7497 293.326,27.7497 295.5,27.5 Z M 317.5,27.5 C 319.819,27.9925 321.819,28.9925 323.5,30.5C 301.5,42.8333 279.5,55.1667 257.5,67.5C 277.119,53.6837 297.119,40.3503 317.5,27.5 Z M 333.5,35.5 C 334.5,35.8333 335.167,36.5 335.5,37.5C 329.325,41.0882 322.991,44.4215 316.5,47.5C 321.991,43.2541 327.658,39.2541 333.5,35.5 Z M 314.5,48.5 C 314.027,49.9063 313.027,50.573 311.5,50.5C 311.973,49.0937 312.973,48.427 314.5,48.5 Z M 352.5,49.5 C 354.167,50.8333 355.833,52.1667 357.5,53.5C 336.869,65.485 316.202,77.485 295.5,89.5C 294.833,89.1667 294.167,88.8333 293.5,88.5C 313.338,75.7484 333.005,62.7484 352.5,49.5 Z M 364.5,61.5 C 366.543,62.5794 367.876,64.246 368.5,66.5C 349.664,77.7526 330.664,88.7526 311.5,99.5C 310.5,99.1667 309.833,98.5 309.5,97.5C 327.626,85.2647 345.959,73.2647 364.5,61.5 Z M 146.5,67.5 C 141.473,71.8533 136.14,75.8533 130.5,79.5C 131.167,77.8333 131.833,76.1667 132.5,74.5C 137.167,72.1667 141.833,69.8333 146.5,67.5 Z M 257.5,67.5 C 257.027,68.9063 256.027,69.573 254.5,69.5C 254.973,68.0937 255.973,67.427 257.5,67.5 Z M 375.5,74.5 C 375.833,75.1667 376.167,75.8333 376.5,76.5C 369.658,80.4216 362.658,84.0883 355.5,87.5C 361.789,82.6822 368.456,78.3489 375.5,74.5 Z M 145.5,85.5 C 136.8,92.1899 127.8,98.5232 118.5,104.5C 119.038,102.883 119.371,101.216 119.5,99.5C 128.167,94.8333 136.833,90.1667 145.5,85.5 Z M 381.5,85.5 C 382.5,85.8333 383.167,86.5 383.5,87.5C 370.816,94.5282 358.15,101.528 345.5,108.5C 356.959,100.052 368.959,92.385 381.5,85.5 Z M 355.5,87.5 C 354.341,89.2503 352.674,90.2503 350.5,90.5C 351.659,88.7497 353.326,87.7497 355.5,87.5 Z M 283.5,95.5 C 283.833,95.5 284.167,95.5 284.5,95.5C 283.486,96.6737 282.153,97.3404 280.5,97.5C 280.973,96.0937 281.973,95.427 283.5,95.5 Z M 280.5,97.5 C 280.027,98.9063 279.027,99.573 277.5,99.5C 277.973,98.0937 278.973,97.427 280.5,97.5 Z M 345.5,108.5 C 344.341,110.25 342.674,111.25 340.5,111.5C 341.659,109.75 343.326,108.75 345.5,108.5 Z M 166.5,114.5 C 147.204,127.487 127.87,140.487 108.5,153.5C 109.219,151.236 109.552,148.903 109.5,146.5C 128.365,135.568 147.365,124.901 166.5,114.5 Z M 394.5,115.5 C 394.027,116.906 393.027,117.573 391.5,117.5C 391.973,116.094 392.973,115.427 394.5,115.5 Z M 398.5,126.5 C 398.5,127.833 398.5,129.167 398.5,130.5C 378.664,142.922 358.33,154.588 337.5,165.5C 337.5,165.167 337.5,164.833 337.5,164.5C 357.693,151.572 378.027,138.905 398.5,126.5 Z M 113.5,131.5 C 113.027,132.906 112.027,133.573 110.5,133.5C 110.5,133.167 110.5,132.833 110.5,132.5C 111.391,131.89 112.391,131.557 113.5,131.5 Z M 400.5,142.5 C 401.404,143.209 401.737,144.209 401.5,145.5C 384.635,155.432 367.635,165.098 350.5,174.5C 366.819,163.337 383.486,152.671 400.5,142.5 Z M 174.5,152.5 C 174.5,153.167 174.5,153.833 174.5,154.5C 153.833,167.833 133.167,181.167 112.5,194.5C 112.483,192.435 112.15,190.435 111.5,188.5C 132.337,176.247 153.337,164.247 174.5,152.5 Z M 402.5,157.5 C 402.5,159.5 402.5,161.5 402.5,163.5C 380.5,175.833 358.5,188.167 336.5,200.5C 358.122,185.682 380.122,171.349 402.5,157.5 Z M 121.5,158.5 C 121.027,159.906 120.027,160.573 118.5,160.5C 118.973,159.094 119.973,158.427 121.5,158.5 Z M 118.5,160.5 C 116.054,163.231 113.054,165.231 109.5,166.5C 108.833,166.5 108.5,166.167 108.5,165.5C 111.55,163.308 114.883,161.642 118.5,160.5 Z M 174.5,170.5 C 174.5,171.5 174.5,172.5 174.5,173.5C 155.167,186.167 135.833,198.833 116.5,211.5C 115.85,209.565 115.517,207.565 115.5,205.5C 134.966,193.596 154.633,181.93 174.5,170.5 Z M 401.5,176.5 C 401.326,178.861 400.993,181.194 400.5,183.5C 376.833,196.833 353.167,210.167 329.5,223.5C 352.955,207.054 376.955,191.387 401.5,176.5 Z M 398.5,196.5 C 398.371,198.216 398.038,199.883 397.5,201.5C 383.301,209.766 368.968,217.766 354.5,225.5C 368.787,215.35 383.454,205.683 398.5,196.5 Z M 141.5,209.5 C 140.341,211.25 138.674,212.25 136.5,212.5C 137.659,210.75 139.326,209.75 141.5,209.5 Z M 165.5,209.5 C 165.027,210.906 164.027,211.573 162.5,211.5C 162.973,210.094 163.973,209.427 165.5,209.5 Z M 162.5,211.5 C 149.87,219.82 137.203,228.153 124.5,236.5C 123.89,235.609 123.557,234.609 123.5,233.5C 136.365,225.901 149.365,218.568 162.5,211.5 Z M 136.5,212.5 C 131.352,216.911 125.686,220.578 119.5,223.5C 119.5,222.833 119.5,222.167 119.5,221.5C 125.035,218.233 130.702,215.233 136.5,212.5 Z M 211.5,233.5 C 211.027,234.906 210.027,235.573 208.5,235.5C 208.973,234.094 209.973,233.427 211.5,233.5 Z M 206.5,236.5 C 206.027,237.906 205.027,238.573 203.5,238.5C 203.973,237.094 204.973,236.427 206.5,236.5 Z M 203.5,238.5 C 183.374,252.069 163.041,265.402 142.5,278.5C 142.107,276.716 141.441,275.05 140.5,273.5C 161.339,261.58 182.339,249.913 203.5,238.5 Z M 206.5,253.5 C 206.027,254.906 205.027,255.573 203.5,255.5C 203.973,254.094 204.973,253.427 206.5,253.5 Z M 203.5,255.5 C 185.877,267.651 167.877,279.318 149.5,290.5C 148.833,289.167 148.167,287.833 147.5,286.5C 166.167,276.167 184.833,265.833 203.5,255.5 Z M 231.5,255.5 C 231.027,256.906 230.027,257.573 228.5,257.5C 228.973,256.094 229.973,255.427 231.5,255.5 Z M 226.5,258.5 C 204.02,274.244 181.02,289.244 157.5,303.5C 156.833,302.167 156.167,300.833 155.5,299.5C 178.903,285.442 202.57,271.775 226.5,258.5 Z M 142.5,260.5 C 142.027,261.906 141.027,262.573 139.5,262.5C 139.973,261.094 140.973,260.427 142.5,260.5 Z M 243.5,266.5 C 243.027,267.906 242.027,268.573 240.5,268.5C 240.973,267.094 241.973,266.427 243.5,266.5 Z M 240.5,268.5 C 216.213,285.317 191.547,301.65 166.5,317.5C 165.248,315.999 164.248,314.332 163.5,312.5C 188.67,297.078 214.337,282.411 240.5,268.5 Z M 224.5,296.5 C 208.213,307.984 191.546,318.984 174.5,329.5C 173.833,328.167 173.167,326.833 172.5,325.5C 189.833,315.833 207.167,306.167 224.5,296.5 Z M 344.5,318.5 C 344.267,320.062 343.6,321.395 342.5,322.5C 338.473,324.513 334.473,326.513 330.5,328.5C 334.865,324.811 339.531,321.478 344.5,318.5 Z M 330.5,328.5 C 330.027,329.906 329.027,330.573 327.5,330.5C 327.973,329.094 328.973,328.427 330.5,328.5 Z M 255.5,367.5 C 248.47,373.188 241.137,378.522 233.5,383.5C 232.833,382.5 232.167,381.5 231.5,380.5C 239.517,376.138 247.517,371.805 255.5,367.5 Z M 207.5,391.5 C 200.504,396.334 193.171,400.667 185.5,404.5C 190.313,399.93 195.313,395.597 200.5,391.5C 203.041,390.897 205.374,390.897 207.5,391.5 Z M 332.5,393.5 C 335.689,393.858 338.689,394.525 341.5,395.5C 328.806,402.512 316.14,409.512 303.5,416.5C 312.985,408.593 322.651,400.926 332.5,393.5 Z M 356.5,398.5 C 357.959,398.433 359.292,398.766 360.5,399.5C 353.328,404.589 345.661,408.923 337.5,412.5C 343.262,407.113 349.595,402.446 356.5,398.5 Z M 146.5,400.5 C 138.168,406.002 129.501,411.002 120.5,415.5C 123.261,411.65 126.261,407.983 129.5,404.5C 135.132,403.009 140.799,401.675 146.5,400.5 Z M 215.5,401.5 C 216.167,401.5 216.5,401.833 216.5,402.5C 215.486,403.674 214.153,404.34 212.5,404.5C 213.306,403.272 214.306,402.272 215.5,401.5 Z M 374.5,403.5 C 376.403,403.796 378.07,404.463 379.5,405.5C 371.473,409.846 363.473,414.179 355.5,418.5C 361.652,413.259 367.985,408.259 374.5,403.5 Z M 227.5,414.5 C 228.167,414.5 228.5,414.833 228.5,415.5C 227.609,416.11 226.609,416.443 225.5,416.5C 225.833,415.5 226.5,414.833 227.5,414.5 Z M 225.5,416.5 C 225.027,417.906 224.027,418.573 222.5,418.5C 222.973,417.094 223.973,416.427 225.5,416.5 Z M 402.5,416.5 C 404.167,417.5 405.5,418.833 406.5,420.5C 403.205,421.284 399.871,422.284 396.5,423.5C 398.5,421.167 400.5,418.833 402.5,416.5 Z M 410.5,446.5 C 410.5,446.833 410.5,447.167 410.5,447.5C 409.609,448.11 408.609,448.443 407.5,448.5C 407.973,447.094 408.973,446.427 410.5,446.5 Z M 114.5,464.5 C 113.415,466.587 111.749,467.92 109.5,468.5C 108.833,468.5 108.5,468.167 108.5,467.5C 110.517,466.471 112.517,465.471 114.5,464.5 Z M 157.5,465.5 C 150.167,471.833 142.833,478.167 135.5,484.5C 133.426,483.486 131.426,482.486 129.5,481.5C 138.571,475.775 147.904,470.441 157.5,465.5 Z M 392.5,469.5 C 388.79,473.208 385.457,477.208 382.5,481.5C 376.222,483.37 369.889,485.037 363.5,486.5C 372.902,480.442 382.569,474.776 392.5,469.5 Z M 167.5,477.5 C 167.027,478.906 166.027,479.573 164.5,479.5C 164.973,478.094 165.973,477.427 167.5,477.5 Z M 324.5,477.5 C 316.5,483.833 308.5,490.167 300.5,496.5C 296.802,496.552 293.135,496.886 289.5,497.5C 300.996,490.584 312.663,483.917 324.5,477.5 Z M 164.5,479.5 C 160.792,483.21 156.792,486.543 152.5,489.5C 151.167,489.167 149.833,488.833 148.5,488.5C 153.502,484.997 158.835,481.997 164.5,479.5 Z M 209.5,479.5 C 203.078,485.55 196.078,490.883 188.5,495.5C 186.167,495.5 183.833,495.5 181.5,495.5C 190.5,489.664 199.833,484.331 209.5,479.5 Z M 344.5,482.5 C 344.027,483.906 343.027,484.573 341.5,484.5C 341.973,483.094 342.973,482.427 344.5,482.5 Z M 341.5,484.5 C 338.5,487.167 335.5,489.833 332.5,492.5C 330.194,492.993 327.861,493.326 325.5,493.5C 330.502,489.997 335.835,486.997 341.5,484.5 Z M 256.5,489.5 C 256.027,490.906 255.027,491.573 253.5,491.5C 253.973,490.094 254.973,489.427 256.5,489.5 Z M 253.5,491.5 C 250.72,494.064 247.72,496.397 244.5,498.5C 243.5,498.5 242.5,498.5 241.5,498.5C 245.164,495.665 249.164,493.332 253.5,491.5 Z M 275.5,492.5 C 273.167,494.5 270.833,496.5 268.5,498.5C 267.167,498.5 265.833,498.5 264.5,498.5C 267.999,496.25 271.665,494.25 275.5,492.5 Z"/></g>
<g><path style="opacity:0.773" fill="#4396c9" d="M 295.5,10.5 C 292.505,10.7062 289.838,10.0395 287.5,8.5C 290.839,6.76518 293.506,7.43184 295.5,10.5 Z"/></g>
<g><path style="opacity:0.729" fill="#428fc4" d="M 300.5,11.5 C 302.527,11.3379 304.527,11.5045 306.5,12C 307.056,12.3826 307.389,12.8826 307.5,13.5C 307.44,14.0431 307.107,14.3764 306.5,14.5C 304.22,13.8641 302.22,12.8641 300.5,11.5 Z"/></g>
<g><path style="opacity:0.737" fill="#4897d4" d="M 203.5,14.5 C 197.35,17.4028 191.016,20.0695 184.5,22.5C 188.937,19.4411 193.603,16.6078 198.5,14C 200.387,13.2204 202.054,13.3871 203.5,14.5 Z"/></g>
<g><path style="opacity:0.966" fill="#469fdc" d="M 248.5,13.5 C 255.354,13.176 262.021,13.5093 268.5,14.5C 255.201,23.1427 242.201,32.1427 229.5,41.5C 244.998,33.5878 259.998,24.9211 274.5,15.5C 284.403,15.3458 293.736,17.3458 302.5,21.5C 300.167,23.5 297.833,25.5 295.5,27.5C 298.76,26.2262 301.76,24.5595 304.5,22.5C 309.461,22.8242 313.794,24.4909 317.5,27.5C 297.119,40.3503 277.119,53.6837 257.5,67.5C 279.5,55.1667 301.5,42.8333 323.5,30.5C 327.42,31.1266 330.753,32.7933 333.5,35.5C 327.658,39.2541 321.991,43.2541 316.5,47.5C 322.991,44.4215 329.325,41.0882 335.5,37.5C 342.252,39.912 347.919,43.912 352.5,49.5C 333.005,62.7484 313.338,75.7484 293.5,88.5C 285.888,86.5138 278.221,84.6805 270.5,83C 227.493,77.4085 197.326,94.2419 180,133.5C 178.226,139.885 176.392,146.219 174.5,152.5C 153.337,164.247 132.337,176.247 111.5,188.5C 109.528,181.32 108.861,173.986 109.5,166.5C 113.054,165.231 116.054,163.231 118.5,160.5C 114.883,161.642 111.55,163.308 108.5,165.5C 108.5,161.5 108.5,157.5 108.5,153.5C 127.87,140.487 147.204,127.487 166.5,114.5C 147.365,124.901 128.365,135.568 109.5,146.5C 108.596,142.249 108.929,137.916 110.5,133.5C 112.027,133.573 113.027,132.906 113.5,131.5C 112.391,131.557 111.391,131.89 110.5,132.5C 111.323,122.527 113.99,113.193 118.5,104.5C 127.8,98.5232 136.8,92.1899 145.5,85.5C 136.833,90.1667 128.167,94.8333 119.5,99.5C 121.633,91.893 125.3,85.2263 130.5,79.5C 136.14,75.8533 141.473,71.8533 146.5,67.5C 141.833,69.8333 137.167,72.1667 132.5,74.5C 150.375,47.9546 174.375,30.288 204.5,21.5C 205.492,21.6716 206.158,21.3382 206.5,20.5C 216.047,16.324 226.047,14.324 236.5,14.5C 226.167,22.5 215.833,30.5 205.5,38.5C 220.333,30.9206 234.666,22.5873 248.5,13.5 Z M 295.5,27.5 C 294.341,29.2503 292.674,30.2503 290.5,30.5C 291.659,28.7497 293.326,27.7497 295.5,27.5 Z M 314.5,48.5 C 314.027,49.9063 313.027,50.573 311.5,50.5C 311.973,49.0937 312.973,48.427 314.5,48.5 Z M 257.5,67.5 C 257.027,68.9063 256.027,69.573 254.5,69.5C 254.973,68.0937 255.973,67.427 257.5,67.5 Z M 121.5,158.5 C 121.027,159.906 120.027,160.573 118.5,160.5C 118.973,159.094 119.973,158.427 121.5,158.5 Z"/></g>
<g><path style="opacity:0.769" fill="#4598d4" d="M 316.5,16.5 C 318.698,16.1201 320.365,16.7868 321.5,18.5C 319.302,18.8799 317.635,18.2132 316.5,16.5 Z"/></g>
<g><path style="opacity:0.635" fill="#4395cd" d="M 163.5,34.5 C 160.019,37.4086 156.352,40.0753 152.5,42.5C 152.511,40.9826 153.177,39.8159 154.5,39C 157.411,37.2389 160.411,35.7389 163.5,34.5 Z"/></g>
<g><path style="opacity:0.938" fill="#469fdc" d="M 357.5,53.5 C 360.573,55.5691 362.906,58.2358 364.5,61.5C 345.959,73.2647 327.626,85.2647 309.5,97.5C 308.448,97.6495 307.448,97.4828 306.5,97C 302.767,94.4772 299.101,91.9772 295.5,89.5C 316.202,77.485 336.869,65.485 357.5,53.5 Z"/></g>
<g><path style="opacity:0.998" fill="#28292a" d="M 293.5,88.5 C 294.167,88.8333 294.833,89.1667 295.5,89.5C 299.101,91.9772 302.767,94.4772 306.5,97C 307.448,97.4828 308.448,97.6495 309.5,97.5C 309.833,98.5 310.5,99.1667 311.5,99.5C 317.539,105.546 322.873,112.213 327.5,119.5C 334.684,133.766 338.017,148.766 337.5,164.5C 337.5,164.833 337.5,165.167 337.5,165.5C 335.364,181.581 329.697,196.248 320.5,209.5C 320.5,209.833 320.5,210.167 320.5,210.5C 307.191,226.655 290.191,236.321 269.5,239.5C 267.901,239.232 266.568,239.566 265.5,240.5C 247.374,242.528 230.04,239.861 213.5,232.5C 213.167,232.5 212.833,232.5 212.5,232.5C 190.134,219.124 177.467,199.457 174.5,173.5C 174.5,172.5 174.5,171.5 174.5,170.5C 174.5,165.167 174.5,159.833 174.5,154.5C 174.5,153.833 174.5,153.167 174.5,152.5C 176.392,146.219 178.226,139.885 180,133.5C 197.326,94.2419 227.493,77.4085 270.5,83C 278.221,84.6805 285.888,86.5138 293.5,88.5 Z M 283.5,95.5 C 283.833,95.5 284.167,95.5 284.5,95.5C 283.486,96.6737 282.153,97.3404 280.5,97.5C 280.973,96.0937 281.973,95.427 283.5,95.5 Z M 280.5,97.5 C 280.027,98.9063 279.027,99.573 277.5,99.5C 277.973,98.0937 278.973,97.427 280.5,97.5 Z"/></g>
<g><path style="opacity:0.958" fill="#469fdc" d="M 368.5,66.5 C 370.017,66.5106 371.184,67.1772 372,68.5C 373.421,70.4048 374.588,72.4048 375.5,74.5C 368.456,78.3489 361.789,82.6822 355.5,87.5C 362.658,84.0883 369.658,80.4216 376.5,76.5C 379.472,78.7781 381.139,81.7781 381.5,85.5C 368.959,92.385 356.959,100.052 345.5,108.5C 358.15,101.528 370.816,94.5282 383.5,87.5C 386.165,89.8355 387.498,92.8355 387.5,96.5C 390.081,99.3203 391.914,102.654 393,106.5C 394.532,109.51 395.032,112.51 394.5,115.5C 397.19,118.547 398.524,122.213 398.5,126.5C 378.027,138.905 357.693,151.572 337.5,164.5C 338.017,148.766 334.684,133.766 327.5,119.5C 322.873,112.213 317.539,105.546 311.5,99.5C 330.664,88.7526 349.664,77.7526 368.5,66.5 Z M 355.5,87.5 C 354.341,89.2503 352.674,90.2503 350.5,90.5C 351.659,88.7497 353.326,87.7497 355.5,87.5 Z M 345.5,108.5 C 344.341,110.25 342.674,111.25 340.5,111.5C 341.659,109.75 343.326,108.75 345.5,108.5 Z M 394.5,115.5 C 394.027,116.906 393.027,117.573 391.5,117.5C 391.973,116.094 392.973,115.427 394.5,115.5 Z"/></g>
<g><path style="opacity:0.999" fill="#fbfdfd" d="M 263.5,89.5 C 255.353,96.1363 247.019,102.636 238.5,109C 249.537,103.642 260.204,97.4757 270.5,90.5C 275.324,91.2135 279.657,92.8801 283.5,95.5C 281.973,95.427 280.973,96.0937 280.5,97.5C 278.973,97.427 277.973,98.0937 277.5,99.5C 276.508,99.3284 275.842,99.6618 275.5,100.5C 274.833,100.5 274.5,100.833 274.5,101.5C 274.5,102.167 274.167,102.5 273.5,102.5C 273.167,101.167 272.833,101.167 272.5,102.5C 271.833,102.5 271.5,102.833 271.5,103.5C 269.388,104.44 267.388,105.606 265.5,107C 264.304,107.654 264.304,108.154 265.5,108.5C 272.887,104.475 280.221,100.475 287.5,96.5C 290.704,97.3833 293.371,99.0499 295.5,101.5C 287.655,107.17 279.655,112.67 271.5,118C 280.666,113.746 289.666,108.913 298.5,103.5C 300.833,105.167 302.833,107.167 304.5,109.5C 287.927,122.799 270.927,135.632 253.5,148C 254.908,148.315 256.241,147.982 257.5,147C 274.895,136.304 292.562,126.138 310.5,116.5C 312.192,118.205 313.525,120.205 314.5,122.5C 314.489,124.017 313.823,125.184 312.5,126C 299.992,134.421 287.658,143.087 275.5,152C 289.866,144.98 303.866,137.146 317.5,128.5C 319.02,130.89 320.02,133.557 320.5,136.5C 313.018,142.47 305.351,148.303 297.5,154C 306.02,150.407 314.353,146.24 322.5,141.5C 323.461,144.426 324.127,147.426 324.5,150.5C 317.715,154.779 311.048,159.279 304.5,164C 311.196,160.864 317.863,157.364 324.5,153.5C 325.451,154.919 325.784,156.585 325.5,158.5C 325.756,160.792 325.423,162.959 324.5,165C 312.655,173.423 300.988,182.09 289.5,191C 290.908,191.315 292.241,190.982 293.5,190C 304.058,183.557 314.725,177.391 325.5,171.5C 325.577,175.962 324.91,180.295 323.5,184.5C 317.377,188.783 311.377,193.283 305.5,198C 310.863,195.822 316.196,193.322 321.5,190.5C 311.135,214.849 292.802,229.182 266.5,233.5C 267.987,232.196 269.654,231.03 271.5,230C 272.696,229.346 272.696,228.846 271.5,228.5C 268.262,230.275 265.262,232.275 262.5,234.5C 256.642,234.822 250.975,234.489 245.5,233.5C 255.414,226.516 264.414,219.183 272.5,211.5C 262.336,217.081 252.336,222.914 242.5,229C 240.091,230.707 237.425,231.54 234.5,231.5C 231.62,231.06 228.954,230.06 226.5,228.5C 239.981,217.864 253.648,207.364 267.5,197C 251.292,205.775 234.959,214.609 218.5,223.5C 215.883,222.214 213.55,220.547 211.5,218.5C 218.591,213.109 225.925,207.943 233.5,203C 225.29,207.105 216.957,211.272 208.5,215.5C 206.086,214.089 204.419,212.089 203.5,209.5C 213.257,202.11 223.257,194.943 233.5,188C 222.453,193.499 211.453,199.332 200.5,205.5C 198.684,203.882 197.351,201.882 196.5,199.5C 196.414,198.504 196.748,197.671 197.5,197C 209.167,188.667 220.833,180.333 232.5,172C 230.402,172.032 228.402,172.699 226.5,174C 215.472,180.511 204.472,187.011 193.5,193.5C 191.93,190.686 190.597,187.686 189.5,184.5C 205.289,173.218 220.955,161.718 236.5,150C 221.863,157.159 207.53,165.159 193.5,174C 191.35,175.411 189.016,176.245 186.5,176.5C 185.793,173.214 185.46,169.881 185.5,166.5C 185.938,166.565 186.272,166.399 186.5,166C 184.611,162.164 183.945,157.997 184.5,153.5C 190.455,150.182 196.122,146.349 201.5,142C 195.674,144.246 190.007,147.08 184.5,150.5C 184.86,145.663 185.86,140.996 187.5,136.5C 192.951,132.931 198.284,129.097 203.5,125C 198.552,126.735 193.886,129.235 189.5,132.5C 195.422,117.742 205.422,106.575 219.5,99C 223.926,96.4708 228.592,94.6375 233.5,93.5C 231.098,96.2155 228.432,98.7155 225.5,101C 225.833,101.167 226.167,101.333 226.5,101.5C 232.402,98.0584 238.068,94.3917 243.5,90.5C 250.109,89.5774 256.776,89.2441 263.5,89.5 Z M 280.5,97.5 C 280.027,98.9063 279.027,99.573 277.5,99.5C 277.973,98.0937 278.973,97.427 280.5,97.5 Z"/></g>
<g><path style="opacity:1" fill="#59a7de" d="M 263.5,89.5 C 265.861,89.6741 268.194,90.0074 270.5,90.5C 260.204,97.4757 249.537,103.642 238.5,109C 247.019,102.636 255.353,96.1363 263.5,89.5 Z"/></g>
<g><path style="opacity:1" fill="#5da5d8" d="M 243.5,90.5 C 238.068,94.3917 232.402,98.0584 226.5,101.5C 226.167,101.333 225.833,101.167 225.5,101C 228.432,98.7155 231.098,96.2155 233.5,93.5C 236.55,91.8993 239.884,90.8993 243.5,90.5 Z"/></g>
<g><path style="opacity:0.667" fill="#5ba8e0" d="M 284.5,95.5 C 285.791,95.2627 286.791,95.596 287.5,96.5C 280.221,100.475 272.887,104.475 265.5,108.5C 264.304,108.154 264.304,107.654 265.5,107C 267.388,105.606 269.388,104.44 271.5,103.5C 272.167,103.5 272.5,103.167 272.5,102.5C 272.833,102.5 273.167,102.5 273.5,102.5C 274.167,102.5 274.5,102.167 274.5,101.5C 275.167,101.5 275.5,101.167 275.5,100.5C 276.492,100.672 277.158,100.338 277.5,99.5C 279.027,99.573 280.027,98.9063 280.5,97.5C 282.153,97.3404 283.486,96.6737 284.5,95.5 Z"/></g>
<g><path style="opacity:1" fill="#60aadf" d="M 295.5,101.5 C 297.027,101.427 298.027,102.094 298.5,103.5C 289.666,108.913 280.666,113.746 271.5,118C 279.655,112.67 287.655,107.17 295.5,101.5 Z"/></g>
<g><path style="opacity:0.991" fill="#53a5de" d="M 304.5,109.5 C 307.219,111.219 309.219,113.553 310.5,116.5C 292.562,126.138 274.895,136.304 257.5,147C 256.241,147.982 254.908,148.315 253.5,148C 270.927,135.632 287.927,122.799 304.5,109.5 Z"/></g>
<g><path style="opacity:0.858" fill="#59a7de" d="M 314.5,122.5 C 316.008,124.181 317.008,126.181 317.5,128.5C 303.866,137.146 289.866,144.98 275.5,152C 287.658,143.087 299.992,134.421 312.5,126C 313.823,125.184 314.489,124.017 314.5,122.5 Z"/></g>
<g><path style="opacity:1" fill="#5ea7db" d="M 187.5,136.5 C 187.66,134.847 188.326,133.514 189.5,132.5C 193.886,129.235 198.552,126.735 203.5,125C 198.284,129.097 192.951,132.931 187.5,136.5 Z"/></g>
<g><path style="opacity:1" fill="#5ca7dd" d="M 320.5,136.5 C 321.537,137.93 322.204,139.597 322.5,141.5C 314.353,146.24 306.02,150.407 297.5,154C 305.351,148.303 313.018,142.47 320.5,136.5 Z"/></g>
<g><path style="opacity:0.969" fill="#469fdc" d="M 398.5,130.5 C 399.117,130.611 399.617,130.944 400,131.5C 400.499,135.152 400.665,138.818 400.5,142.5C 383.486,152.671 366.819,163.337 350.5,174.5C 367.635,165.098 384.635,155.432 401.5,145.5C 402.43,149.4 402.763,153.4 402.5,157.5C 380.122,171.349 358.122,185.682 336.5,200.5C 358.5,188.167 380.5,175.833 402.5,163.5C 402.706,167.898 402.373,172.232 401.5,176.5C 376.955,191.387 352.955,207.054 329.5,223.5C 353.167,210.167 376.833,196.833 400.5,183.5C 400.729,188.01 400.062,192.343 398.5,196.5C 383.454,205.683 368.787,215.35 354.5,225.5C 368.968,217.766 383.301,209.766 397.5,201.5C 396.103,211.087 393.77,220.42 390.5,229.5C 389.167,229.833 389.167,230.167 390.5,230.5C 388.881,235.698 386.881,240.698 384.5,245.5C 383.167,245.833 383.167,246.167 384.5,246.5C 374.61,269.335 363.11,291.335 350,312.5C 348.374,314.805 346.54,316.805 344.5,318.5C 339.531,321.478 334.865,324.811 330.5,328.5C 334.473,326.513 338.473,324.513 342.5,322.5C 336.964,331.709 330.631,340.376 323.5,348.5C 322.833,348.5 322.5,348.833 322.5,349.5C 319.833,349.833 319.833,350.167 322.5,350.5C 304.128,374.048 284.795,396.881 264.5,419C 262.5,420 260.5,421 258.5,422C 256.613,422.78 254.946,422.613 253.5,421.5C 257.332,417.836 261.332,414.336 265.5,411C 260.34,412.913 255.34,415.413 250.5,418.5C 247.833,416.5 245.5,414.167 243.5,411.5C 271.824,391.661 271.157,390.661 241.5,408.5C 240.761,408.631 240.094,408.464 239.5,408C 237.946,405.713 236.279,403.546 234.5,401.5C 242.585,394.944 250.919,388.611 259.5,382.5C 259.167,382.167 258.833,381.833 258.5,381.5C 249.139,386.845 239.806,392.179 230.5,397.5C 227.757,395.761 225.757,393.427 224.5,390.5C 227.81,388.518 230.81,386.185 233.5,383.5C 241.137,378.522 248.47,373.188 255.5,367.5C 247.517,371.805 239.517,376.138 231.5,380.5C 227.673,382.246 224.007,384.246 220.5,386.5C 217.016,382.908 213.516,379.241 210,375.5C 209.209,374.255 208.709,372.922 208.5,371.5C 209.183,370.356 208.849,370.356 207.5,371.5C 204.705,369.249 202.372,366.582 200.5,363.5C 199.043,361.945 197.21,359.945 195,357.5C 192.002,354.169 189.502,350.502 187.5,346.5C 182.625,342.004 178.292,336.337 174.5,329.5C 191.546,318.984 208.213,307.984 224.5,296.5C 207.167,306.167 189.833,315.833 172.5,325.5C 169.551,323.627 167.551,320.961 166.5,317.5C 191.547,301.65 216.213,285.317 240.5,268.5C 214.337,282.411 188.67,297.078 163.5,312.5C 160.723,310.049 158.723,307.049 157.5,303.5C 181.02,289.244 204.02,274.244 226.5,258.5C 202.57,271.775 178.903,285.442 155.5,299.5C 152.759,297.025 150.759,294.025 149.5,290.5C 167.877,279.318 185.877,267.651 203.5,255.5C 184.833,265.833 166.167,276.167 147.5,286.5C 145.347,284.206 143.68,281.54 142.5,278.5C 163.041,265.402 183.374,252.069 203.5,238.5C 205.027,238.573 206.027,237.906 206.5,236.5C 207.492,236.672 208.158,236.338 208.5,235.5C 210.027,235.573 211.027,234.906 211.5,233.5C 212.492,233.672 213.158,233.338 213.5,232.5C 230.04,239.861 247.374,242.528 265.5,240.5C 267.635,241.966 269.635,241.8 271.5,240C 270.906,239.536 270.239,239.369 269.5,239.5C 290.191,236.321 307.191,226.655 320.5,210.5C 321.833,210.167 321.833,209.833 320.5,209.5C 329.697,196.248 335.364,181.581 337.5,165.5C 358.33,154.588 378.664,142.922 398.5,130.5 Z M 206.5,253.5 C 206.027,254.906 205.027,255.573 203.5,255.5C 203.973,254.094 204.973,253.427 206.5,253.5 Z M 231.5,255.5 C 231.027,256.906 230.027,257.573 228.5,257.5C 228.973,256.094 229.973,255.427 231.5,255.5 Z M 243.5,266.5 C 243.027,267.906 242.027,268.573 240.5,268.5C 240.973,267.094 241.973,266.427 243.5,266.5 Z M 330.5,328.5 C 330.027,329.906 329.027,330.573 327.5,330.5C 327.973,329.094 328.973,328.427 330.5,328.5 Z M 255.5,367.5 C 248.47,373.188 241.137,378.522 233.5,383.5C 232.833,382.5 232.167,381.5 231.5,380.5C 239.517,376.138 247.517,371.805 255.5,367.5 Z"/></g>
<g><path style="opacity:1" fill="#5ba9e0" d="M 184.5,153.5 C 184.5,152.5 184.5,151.5 184.5,150.5C 190.007,147.08 195.674,144.246 201.5,142C 196.122,146.349 190.455,150.182 184.5,153.5 Z"/></g>
<g><path style="opacity:1" fill="#64ade2" d="M 324.5,150.5 C 324.5,151.5 324.5,152.5 324.5,153.5C 317.863,157.364 311.196,160.864 304.5,164C 311.048,159.279 317.715,154.779 324.5,150.5 Z"/></g>
<g><path style="opacity:0.937" fill="#46a0dd" d="M 174.5,154.5 C 174.5,159.833 174.5,165.167 174.5,170.5C 154.633,181.93 134.966,193.596 115.5,205.5C 113.882,202.112 112.882,198.446 112.5,194.5C 133.167,181.167 153.833,167.833 174.5,154.5 Z"/></g>
<g><path style="opacity:0.998" fill="#54a5de" d="M 189.5,184.5 C 188.5,181.833 187.5,179.167 186.5,176.5C 189.016,176.245 191.35,175.411 193.5,174C 207.53,165.159 221.863,157.159 236.5,150C 220.955,161.718 205.289,173.218 189.5,184.5 Z"/></g>
<g><path style="opacity:1" fill="#5ba4d9" d="M 325.5,158.5 C 326.794,162.733 326.794,167.066 325.5,171.5C 314.725,177.391 304.058,183.557 293.5,190C 292.241,190.982 290.908,191.315 289.5,191C 300.988,182.09 312.655,173.423 324.5,165C 325.423,162.959 325.756,160.792 325.5,158.5 Z"/></g>
<g><path style="opacity:1" fill="#57a6dd" d="M 196.5,199.5 C 194.992,197.819 193.992,195.819 193.5,193.5C 204.472,187.011 215.472,180.511 226.5,174C 228.402,172.699 230.402,172.032 232.5,172C 220.833,180.333 209.167,188.667 197.5,197C 196.748,197.671 196.414,198.504 196.5,199.5 Z"/></g>
<g><path style="opacity:1" fill="#58a6dc" d="M 323.5,184.5 C 323.029,186.579 322.363,188.579 321.5,190.5C 316.196,193.322 310.863,195.822 305.5,198C 311.377,193.283 317.377,188.783 323.5,184.5 Z"/></g>
<g><path style="opacity:1" fill="#5ba8de" d="M 203.5,209.5 C 201.738,208.738 200.738,207.404 200.5,205.5C 211.453,199.332 222.453,193.499 233.5,188C 223.257,194.943 213.257,202.11 203.5,209.5 Z"/></g>
<g><path style="opacity:0.958" fill="#469fdc" d="M 174.5,173.5 C 177.467,199.457 190.134,219.124 212.5,232.5C 211.833,232.5 211.5,232.833 211.5,233.5C 209.973,233.427 208.973,234.094 208.5,235.5C 207.508,235.328 206.842,235.662 206.5,236.5C 204.973,236.427 203.973,237.094 203.5,238.5C 182.339,249.913 161.339,261.58 140.5,273.5C 138.375,270.912 137.042,267.912 136.5,264.5C 136.938,264.565 137.272,264.399 137.5,264C 135.01,263.505 133.51,262.005 133,259.5C 130.008,251.848 127.175,244.182 124.5,236.5C 137.203,228.153 149.87,219.82 162.5,211.5C 149.365,218.568 136.365,225.901 123.5,233.5C 121.648,230.449 120.314,227.116 119.5,223.5C 125.686,220.578 131.352,216.911 136.5,212.5C 130.702,215.233 125.035,218.233 119.5,221.5C 117.899,218.45 116.899,215.116 116.5,211.5C 135.833,198.833 155.167,186.167 174.5,173.5 Z M 141.5,209.5 C 140.341,211.25 138.674,212.25 136.5,212.5C 137.659,210.75 139.326,209.75 141.5,209.5 Z M 165.5,209.5 C 165.027,210.906 164.027,211.573 162.5,211.5C 162.973,210.094 163.973,209.427 165.5,209.5 Z M 142.5,260.5 C 142.027,261.906 141.027,262.573 139.5,262.5C 139.973,261.094 140.973,260.427 142.5,260.5 Z"/></g>
<g><path style="opacity:0.894" fill="#54a5de" d="M 226.5,228.5 C 225.29,228.068 224.29,227.401 223.5,226.5C 221.326,226.25 219.659,225.25 218.5,223.5C 234.959,214.609 251.292,205.775 267.5,197C 253.648,207.364 239.981,217.864 226.5,228.5 Z"/></g>
<g><path style="opacity:1" fill="#5ca8de" d="M 211.5,218.5 C 210.167,217.833 209.167,216.833 208.5,215.5C 216.957,211.272 225.29,207.105 233.5,203C 225.925,207.943 218.591,213.109 211.5,218.5 Z"/></g>
<g><path style="opacity:0.983" fill="#56a5dd" d="M 245.5,233.5 C 241.542,233.749 237.876,233.082 234.5,231.5C 237.425,231.54 240.091,230.707 242.5,229C 252.336,222.914 262.336,217.081 272.5,211.5C 264.414,219.183 255.414,226.516 245.5,233.5 Z"/></g>
<g><path style="opacity:1" fill="#70aedc" d="M 266.5,233.5 C 265.292,234.234 263.959,234.567 262.5,234.5C 265.262,232.275 268.262,230.275 271.5,228.5C 272.696,228.846 272.696,229.346 271.5,230C 269.654,231.03 267.987,232.196 266.5,233.5 Z"/></g>
<g><path style="opacity:1" fill="#d4e4f0" d="M 265.5,240.5 C 266.568,239.566 267.901,239.232 269.5,239.5C 270.239,239.369 270.906,239.536 271.5,240C 269.635,241.8 267.635,241.966 265.5,240.5 Z"/></g>
<g><path style="opacity:0.963" fill="#d1dce3" d="M 231.5,380.5 C 232.167,381.5 232.833,382.5 233.5,383.5C 230.81,386.185 227.81,388.518 224.5,390.5C 222.833,389.5 221.5,388.167 220.5,386.5C 224.007,384.246 227.673,382.246 231.5,380.5 Z"/></g>
<g><path style="opacity:1" fill="#cfdce4" d="M 234.5,401.5 C 232.833,400.5 231.5,399.167 230.5,397.5C 239.806,392.179 249.139,386.845 258.5,381.5C 258.833,381.833 259.167,382.167 259.5,382.5C 250.919,388.611 242.585,394.944 234.5,401.5 Z"/></g>
<g><path style="opacity:0.988" fill="#d6dfe3" d="M 315.5,391.5 C 314.817,392.644 315.151,392.644 316.5,391.5C 322.034,391.668 327.367,392.335 332.5,393.5C 322.651,400.926 312.985,408.593 303.5,416.5C 316.14,409.512 328.806,402.512 341.5,395.5C 342.265,395.077 343.098,394.743 344,394.5C 348.438,395.406 352.605,396.74 356.5,398.5C 349.595,402.446 343.262,407.113 337.5,412.5C 345.661,408.923 353.328,404.589 360.5,399.5C 365.54,399.85 370.206,401.184 374.5,403.5C 367.985,408.259 361.652,413.259 355.5,418.5C 363.473,414.179 371.473,409.846 379.5,405.5C 384.311,405.647 388.311,407.314 391.5,410.5C 395.933,411.214 399.6,413.214 402.5,416.5C 400.5,418.833 398.5,421.167 396.5,423.5C 399.871,422.284 403.205,421.284 406.5,420.5C 411.326,424.477 411.826,429.144 408,434.5C 401.484,440.343 393.984,444.51 385.5,447C 351.211,456.829 316.211,462.329 280.5,463.5C 288.98,456.53 297.647,449.697 306.5,443C 306.167,442.833 305.833,442.667 305.5,442.5C 292.77,449.86 280.104,457.193 267.5,464.5C 261.833,464.5 256.167,464.5 250.5,464.5C 257.015,459.741 263.348,454.741 269.5,449.5C 269.5,448.833 269.167,448.5 268.5,448.5C 259.726,453.056 251.06,457.889 242.5,463C 236.5,463.667 230.5,463.667 224.5,463C 237.5,453.333 250.5,443.667 263.5,434C 263.167,433.833 262.833,433.667 262.5,433.5C 245.939,442.941 229.605,452.608 213.5,462.5C 195.939,461.624 178.606,459.29 161.5,455.5C 172.644,445.539 184.311,436.039 196.5,427C 197.5,426 198.5,425 199.5,424C 184.024,432.081 168.691,440.747 153.5,450C 150.986,451.252 148.32,451.752 145.5,451.5C 131.481,449.328 118.481,444.495 106.5,437C 100.903,432.404 99.57,426.904 102.5,420.5C 103.833,420.167 103.833,419.833 102.5,419.5C 109.544,411.141 118.544,406.141 129.5,404.5C 126.261,407.983 123.261,411.65 120.5,415.5C 129.501,411.002 138.168,406.002 146.5,400.5C 147.492,400.672 148.158,400.338 148.5,399.5C 165.442,394.548 182.776,391.881 200.5,391.5C 195.313,395.597 190.313,399.93 185.5,404.5C 193.171,400.667 200.504,396.334 207.5,391.5C 211.3,393.963 213.967,397.296 215.5,401.5C 214.306,402.272 213.306,403.272 212.5,404.5C 214.153,404.34 215.486,403.674 216.5,402.5C 220.847,405.848 224.514,409.848 227.5,414.5C 226.5,414.833 225.833,415.5 225.5,416.5C 226.609,416.443 227.609,416.11 228.5,415.5C 232.456,417.485 236.122,419.985 239.5,423C 243.203,425.354 247.203,426.854 251.5,427.5C 252.191,429.022 253.358,430.022 255,430.5C 257.634,429.774 259.801,428.441 261.5,426.5C 266.065,424.546 270.398,422.046 274.5,419C 283.901,410.268 292.568,400.935 300.5,391C 305.684,390.184 310.684,390.35 315.5,391.5 Z M 215.5,401.5 C 216.167,401.5 216.5,401.833 216.5,402.5C 215.486,403.674 214.153,404.34 212.5,404.5C 213.306,403.272 214.306,402.272 215.5,401.5 Z M 227.5,414.5 C 228.167,414.5 228.5,414.833 228.5,415.5C 227.609,416.11 226.609,416.443 225.5,416.5C 225.833,415.5 226.5,414.833 227.5,414.5 Z M 225.5,416.5 C 225.027,417.906 224.027,418.573 222.5,418.5C 222.973,417.094 223.973,416.427 225.5,416.5 Z"/></g>
<g><path style="opacity:0.888" fill="#d0dce3" d="M 243.5,411.5 C 242.094,411.027 241.427,410.027 241.5,408.5C 271.157,390.661 271.824,391.661 243.5,411.5 Z"/></g>
<g><path style="opacity:0.447" fill="#b6bbbe" d="M 95.5,413.5 C 94.8333,414.833 93.8333,415.833 92.5,416.5C 92.5,414.5 93.5,413.5 95.5,413.5 Z"/></g>
<g><path style="opacity:1" fill="#c9d8e2" d="M 253.5,421.5 C 252.167,420.833 251.167,419.833 250.5,418.5C 255.34,415.413 260.34,412.913 265.5,411C 261.332,414.336 257.332,417.836 253.5,421.5 Z"/></g>
<g><path style="opacity:1" fill="#bdcbd0" d="M 161.5,455.5 C 155.912,454.77 150.578,453.436 145.5,451.5C 148.32,451.752 150.986,451.252 153.5,450C 168.691,440.747 184.024,432.081 199.5,424C 198.5,425 197.5,426 196.5,427C 184.311,436.039 172.644,445.539 161.5,455.5 Z"/></g>
<g><path style="opacity:1" fill="#55a2d8" d="M 261.5,426.5 C 259.801,428.441 257.634,429.774 255,430.5C 253.358,430.022 252.191,429.022 251.5,427.5C 254.86,427.384 258.193,427.051 261.5,426.5 Z"/></g>
<g><path style="opacity:1" fill="#bbc8cd" d="M 268.5,448.5 C 269.167,448.5 269.5,448.833 269.5,449.5C 263.348,454.741 257.015,459.741 250.5,464.5C 237.953,464.915 225.62,464.248 213.5,462.5C 229.605,452.608 245.939,442.941 262.5,433.5C 262.833,433.667 263.167,433.833 263.5,434C 250.5,443.667 237.5,453.333 224.5,463C 230.5,463.667 236.5,463.667 242.5,463C 251.06,457.889 259.726,453.056 268.5,448.5 Z"/></g>
<g><path style="opacity:1" fill="#bbc8cc" d="M 280.5,463.5 C 276.215,464.295 271.881,464.628 267.5,464.5C 280.104,457.193 292.77,449.86 305.5,442.5C 305.833,442.667 306.167,442.833 306.5,443C 297.647,449.697 288.98,456.53 280.5,463.5 Z"/></g>
<g><path style="opacity:0.962" fill="#bccacf" d="M 157.5,465.5 C 147.904,470.441 138.571,475.775 129.5,481.5C 121.172,479.467 114.505,475.134 109.5,468.5C 111.749,467.92 113.415,466.587 114.5,464.5C 112.517,465.471 110.517,466.471 108.5,467.5C 105.526,465.673 103.359,463.007 102,459.5C 99.7583,455.317 99.2583,450.984 100.5,446.5C 119.288,453.874 138.288,460.207 157.5,465.5 Z"/></g>
<g><path style="opacity:0.961" fill="#bcc9ce" d="M 410.5,446.5 C 408.973,446.427 407.973,447.094 407.5,448.5C 408.609,448.443 409.609,448.11 410.5,447.5C 414.17,458.591 411.17,467.425 401.5,474C 395.359,477.074 389.026,479.574 382.5,481.5C 385.457,477.208 388.79,473.208 392.5,469.5C 382.569,474.776 372.902,480.442 363.5,486.5C 362.508,486.328 361.842,486.662 361.5,487.5C 352.001,489.956 342.335,491.622 332.5,492.5C 335.5,489.833 338.5,487.167 341.5,484.5C 335.835,486.997 330.502,489.997 325.5,493.5C 317.282,495.34 308.949,496.34 300.5,496.5C 308.5,490.167 316.5,483.833 324.5,477.5C 312.663,483.917 300.996,490.584 289.5,497.5C 282.543,498.386 275.543,498.72 268.5,498.5C 270.833,496.5 273.167,494.5 275.5,492.5C 271.665,494.25 267.999,496.25 264.5,498.5C 257.704,499.774 251.037,499.774 244.5,498.5C 247.72,496.397 250.72,494.064 253.5,491.5C 249.164,493.332 245.164,495.665 241.5,498.5C 224.515,499.238 207.515,498.738 190.5,497C 189.584,496.722 188.918,496.222 188.5,495.5C 196.078,490.883 203.078,485.55 209.5,479.5C 199.833,484.331 190.5,489.664 181.5,495.5C 174.079,494.874 166.745,493.708 159.5,492C 156.896,491.61 154.562,490.776 152.5,489.5C 156.792,486.543 160.792,483.21 164.5,479.5C 158.835,481.997 153.502,484.997 148.5,488.5C 143.736,488.231 139.403,486.898 135.5,484.5C 142.833,478.167 150.167,471.833 157.5,465.5C 220.112,478.643 282.778,478.809 345.5,466C 367.195,460.768 388.361,453.935 409,445.5C 409.765,445.57 410.265,445.903 410.5,446.5 Z M 167.5,477.5 C 167.027,478.906 166.027,479.573 164.5,479.5C 164.973,478.094 165.973,477.427 167.5,477.5 Z M 209.5,479.5 C 203.078,485.55 196.078,490.883 188.5,495.5C 186.167,495.5 183.833,495.5 181.5,495.5C 190.5,489.664 199.833,484.331 209.5,479.5 Z M 344.5,482.5 C 344.027,483.906 343.027,484.573 341.5,484.5C 341.973,483.094 342.973,482.427 344.5,482.5 Z M 256.5,489.5 C 256.027,490.906 255.027,491.573 253.5,491.5C 253.973,490.094 254.973,489.427 256.5,489.5 Z M 253.5,491.5 C 250.72,494.064 247.72,496.397 244.5,498.5C 243.5,498.5 242.5,498.5 241.5,498.5C 245.164,495.665 249.164,493.332 253.5,491.5 Z M 275.5,492.5 C 273.167,494.5 270.833,496.5 268.5,498.5C 267.167,498.5 265.833,498.5 264.5,498.5C 267.999,496.25 271.665,494.25 275.5,492.5 Z"/></g>
<g><path style="opacity:0.192" fill="#b1babe" d="M 92.5,469.5 C 94.2624,470.262 95.2624,471.596 95.5,473.5C 93.7376,472.738 92.7376,471.404 92.5,469.5 Z"/></g>
</svg>
