<?xml version="1.0" encoding="UTF-8"?>
<!DOCTYPE svg PUBLIC "-//W3C//DTD SVG 1.1//EN" "http://www.w3.org/Graphics/SVG/1.1/DTD/svg11.dtd">
<svg xmlns="http://www.w3.org/2000/svg" version="1.1" width="512px" height="512px" style="shape-rendering:geometricPrecision; text-rendering:geometricPrecision; image-rendering:optimizeQuality; fill-rule:evenodd; clip-rule:evenodd" xmlns:xlink="http://www.w3.org/1999/xlink">
<g><path style="opacity:0.964" fill="#272626" d="M 362.5,319.5 C 361.094,319.973 360.427,320.973 360.5,322.5C 340.194,347.106 320.36,372.106 301,397.5C 290.269,413.246 280.769,429.746 272.5,447C 284.689,447.884 296.689,449.884 308.5,453C 319.177,456.084 328.344,461.584 336,469.5C 340.507,478.244 338.674,485.411 330.5,491C 283.829,512.881 236.496,514.214 188.5,495C 183.446,492.611 178.946,489.445 175,485.5C 169.613,477.296 171.113,470.463 179.5,465C 185.188,461.653 191.188,459.153 197.5,457.5C 200.659,456.669 203.659,455.669 206.5,454.5C 216.854,452.296 227.188,449.962 237.5,447.5C 229.196,429.551 219.363,412.551 208,396.5C 185.711,368.543 163.045,340.876 140,313.5C 124.657,292.831 111.323,270.831 100,247.5C 81.329,199.807 82.1624,152.474 102.5,105.5C 104.25,104.341 105.25,102.674 105.5,100.5C 108.98,92.8736 112.98,85.5403 117.5,78.5C 119.727,76.3932 121.727,74.0599 123.5,71.5C 130.057,60.9393 138.391,51.9393 148.5,44.5C 151.207,42.1568 153.874,39.8235 156.5,37.5C 167.571,28.4633 179.904,21.4633 193.5,16.5C 195.674,16.2503 197.341,15.2503 198.5,13.5C 274.049,-8.83041 337.216,9.83626 388,69.5C 426.407,121.681 434.407,178.347 412,239.5C 399.266,268.683 382.766,295.35 362.5,319.5 Z M 243.5,13.5 C 247.5,13.5 251.5,13.5 255.5,13.5C 237.834,24.3355 219.834,34.6688 201.5,44.5C 215.5,34.1667 229.5,23.8333 243.5,13.5 Z M 219.5,15.5 C 208.763,22.2249 197.763,28.5583 186.5,34.5C 190.249,31.112 194.249,27.9454 198.5,25C 200.765,23.2419 202.432,21.0752 203.5,18.5C 208.782,17.2436 214.115,16.2436 219.5,15.5 Z M 272.5,15.5 C 274.435,16.1495 276.435,16.4828 278.5,16.5C 263.998,25.9211 248.998,34.5878 233.5,42.5C 246.326,33.2533 259.326,24.2533 272.5,15.5 Z M 233.5,42.5 C 233.027,43.9063 232.027,44.573 230.5,44.5C 230.973,43.0937 231.973,42.427 233.5,42.5 Z M 150.5,67.5 C 150.027,68.9063 149.027,69.573 147.5,69.5C 147.973,68.0937 148.973,67.427 150.5,67.5 Z M 368.5,67.5 C 370.167,68.5 371.5,69.8333 372.5,71.5C 365.036,76.4034 357.369,81.0701 349.5,85.5C 348.5,84.1667 347.5,82.8333 346.5,81.5C 354.124,77.1941 361.457,72.5274 368.5,67.5 Z M 147.5,69.5 C 140.061,75.9365 132.061,81.6032 123.5,86.5C 124.5,84.5 125.5,82.5 126.5,80.5C 133.342,76.5784 140.342,72.9117 147.5,69.5 Z M 379.5,79.5 C 379.833,80.1667 380.167,80.8333 380.5,81.5C 378.5,82.1667 376.5,82.8333 374.5,83.5C 375.945,81.9373 377.611,80.604 379.5,79.5 Z M 374.5,83.5 C 373.341,85.2503 371.674,86.2503 369.5,86.5C 370.659,84.7497 372.326,83.7497 374.5,83.5 Z M 369.5,86.5 C 369.027,87.9063 368.027,88.573 366.5,88.5C 366.973,87.0937 367.973,86.427 369.5,86.5 Z M 386.5,89.5 C 387.752,91.0009 388.752,92.6675 389.5,94.5C 381.5,98.8333 373.5,103.167 365.5,107.5C 364.326,106.486 363.66,105.153 363.5,103.5C 371.184,98.8063 378.851,94.1397 386.5,89.5 Z M 139.5,92.5 C 139.027,93.9063 138.027,94.573 136.5,94.5C 136.973,93.0937 137.973,92.427 139.5,92.5 Z M 136.5,94.5 C 129.045,100.067 121.379,105.401 113.5,110.5C 113.833,109.167 114.167,107.833 114.5,106.5C 121.54,101.98 128.874,97.9795 136.5,94.5 Z M 394.5,103.5 C 395.441,105.05 396.107,106.716 396.5,108.5C 388.328,113.42 379.995,118.087 371.5,122.5C 371.167,121.167 370.833,119.833 370.5,118.5C 378.156,113.003 386.156,108.003 394.5,103.5 Z M 398.5,119.5 C 398.027,120.906 397.027,121.573 395.5,121.5C 395.973,120.094 396.973,119.427 398.5,119.5 Z M 404.5,128.5 C 405.309,130.028 405.976,131.694 406.5,133.5C 397.634,138.766 388.634,143.766 379.5,148.5C 378.566,147.432 378.232,146.099 378.5,144.5C 387.414,139.59 396.08,134.257 404.5,128.5 Z M 408.5,144.5 C 409.369,146.717 409.702,149.05 409.5,151.5C 400.167,156.833 390.833,162.167 381.5,167.5C 381.5,165.833 381.5,164.167 381.5,162.5C 390.291,156.265 399.291,150.265 408.5,144.5 Z M 411.5,162.5 C 411.5,164.5 411.5,166.5 411.5,168.5C 401.3,174.433 390.967,180.1 380.5,185.5C 381.234,184.292 381.567,182.959 381.5,181.5C 391.19,174.656 401.19,168.323 411.5,162.5 Z M 411.5,180.5 C 411.5,180.833 411.5,181.167 411.5,181.5C 410.609,182.11 409.609,182.443 408.5,182.5C 408.973,181.094 409.973,180.427 411.5,180.5 Z M 410.5,194.5 C 409.699,196.042 409.366,197.708 409.5,199.5C 396.833,206.5 384.167,213.5 371.5,220.5C 371.5,219.833 371.5,219.167 371.5,218.5C 384.5,210.5 397.5,202.5 410.5,194.5 Z M 134.5,202.5 C 134.433,203.959 134.766,205.292 135.5,206.5C 126.167,212.5 116.833,218.5 107.5,224.5C 107.167,222.5 106.833,220.5 106.5,218.5C 115.833,213.167 125.167,207.833 134.5,202.5 Z M 406.5,213.5 C 406.167,215.5 405.833,217.5 405.5,219.5C 387.5,229.5 369.5,239.5 351.5,249.5C 351.833,248.833 352.167,248.167 352.5,247.5C 370.472,236.177 388.472,224.844 406.5,213.5 Z M 123.5,227.5 C 123.027,228.906 122.027,229.573 120.5,229.5C 120.973,228.094 121.973,227.427 123.5,227.5 Z M 144.5,228.5 C 144.833,229.833 145.167,231.167 145.5,232.5C 136.167,238.5 126.833,244.5 117.5,250.5C 116.833,248.5 116.167,246.5 115.5,244.5C 125.3,239.433 134.967,234.099 144.5,228.5 Z M 118.5,230.5 C 116.469,232.522 114.135,234.189 111.5,235.5C 111.5,235.167 111.5,234.833 111.5,234.5C 113.336,232.412 115.669,231.079 118.5,230.5 Z M 399.5,235.5 C 399.5,236.167 399.5,236.833 399.5,237.5C 393.127,241.687 386.461,245.353 379.5,248.5C 385.622,243.387 392.289,239.054 399.5,235.5 Z M 151.5,242.5 C 152.401,243.29 153.068,244.29 153.5,245.5C 144.167,251.833 134.833,258.167 125.5,264.5C 124.263,263.035 123.263,261.368 122.5,259.5C 132.331,254.086 141.998,248.419 151.5,242.5 Z M 379.5,248.5 C 378.341,250.25 376.674,251.25 374.5,251.5C 375.659,249.75 377.326,248.75 379.5,248.5 Z M 170.5,263.5 C 170.833,264.5 171.5,265.167 172.5,265.5C 161.5,272.833 150.5,280.167 139.5,287.5C 138.11,286.101 137.11,284.434 136.5,282.5C 147.85,276.139 159.184,269.805 170.5,263.5 Z M 137.5,269.5 C 137.027,270.906 136.027,271.573 134.5,271.5C 134.973,270.094 135.973,269.427 137.5,269.5 Z M 132.5,272.5 C 132.167,273.5 131.5,274.167 130.5,274.5C 130.5,274.167 130.5,273.833 130.5,273.5C 130.842,272.662 131.508,272.328 132.5,272.5 Z M 183.5,273.5 C 184.872,274.512 186.205,275.512 187.5,276.5C 174.33,284.584 161.33,292.917 148.5,301.5C 147.5,299.5 146.5,297.5 145.5,295.5C 158.167,288.167 170.833,280.833 183.5,273.5 Z M 200.5,282.5 C 201.71,282.932 202.71,283.599 203.5,284.5C 188.67,294.416 173.67,304.083 158.5,313.5C 157.512,312.205 156.512,310.872 155.5,309.5C 170.666,300.752 185.666,291.752 200.5,282.5 Z M 230.5,297.5 C 230.027,298.906 229.027,299.573 227.5,299.5C 227.973,298.094 228.973,297.427 230.5,297.5 Z M 227.5,299.5 C 210.351,311.579 192.684,322.912 174.5,333.5C 173.599,332.71 172.932,331.71 172.5,330.5C 190.699,319.901 209.032,309.568 227.5,299.5 Z M 245.5,305.5 C 225.688,319.576 205.355,332.91 184.5,345.5C 183.512,344.205 182.512,342.872 181.5,341.5C 202.833,329.5 224.167,317.5 245.5,305.5 Z M 171.5,318.5 C 170.341,320.25 168.674,321.25 166.5,321.5C 167.659,319.75 169.326,318.75 171.5,318.5 Z M 227.5,333.5 C 227.027,334.906 226.027,335.573 224.5,335.5C 224.973,334.094 225.973,333.427 227.5,333.5 Z M 222.5,336.5 C 212.833,343.167 203.167,349.833 193.5,356.5C 192.599,355.71 191.932,354.71 191.5,353.5C 201.7,347.567 212.033,341.9 222.5,336.5 Z M 221.5,375.5 C 221.027,376.906 220.027,377.573 218.5,377.5C 218.973,376.094 219.973,375.427 221.5,375.5 Z M 218.5,377.5 C 217.055,379.063 215.389,380.396 213.5,381.5C 212.833,381.5 212.5,381.167 212.5,380.5C 214.181,378.992 216.181,377.992 218.5,377.5 Z M 231.5,383.5 C 228.048,386.399 224.382,389.066 220.5,391.5C 220.167,390.833 219.833,390.167 219.5,389.5C 223.527,387.487 227.527,385.487 231.5,383.5 Z M 231.5,397.5 C 231.027,398.906 230.027,399.573 228.5,399.5C 228.973,398.094 229.973,397.427 231.5,397.5 Z M 257.5,418.5 C 253.778,423.189 249.445,427.189 244.5,430.5C 243.833,429.167 243.167,427.833 242.5,426.5C 247.368,423.566 252.368,420.9 257.5,418.5 Z M 292.5,460.5 C 293.833,460.5 295.167,460.5 296.5,460.5C 293.001,462.75 289.335,464.75 285.5,466.5C 287.234,463.8 289.568,461.8 292.5,460.5 Z M 207.5,461.5 C 208.167,461.5 208.833,461.5 209.5,461.5C 209.027,462.906 208.027,463.573 206.5,463.5C 206.833,462.833 207.167,462.167 207.5,461.5 Z M 309.5,465.5 C 310.71,465.932 311.71,466.599 312.5,467.5C 309.167,469.167 305.833,470.833 302.5,472.5C 304.5,469.833 306.833,467.5 309.5,465.5 Z M 241.5,489.5 C 238.729,492.392 235.729,495.058 232.5,497.5C 230.833,497.5 229.167,497.5 227.5,497.5C 231.833,494.331 236.5,491.664 241.5,489.5 Z M 267.5,489.5 C 264.167,492.833 260.833,496.167 257.5,499.5C 254.833,499.5 252.167,499.5 249.5,499.5C 255.17,495.663 261.17,492.33 267.5,489.5 Z"/></g>
<g><path style="opacity:0.978" fill="#e63842" d="M 243.5,13.5 C 229.5,23.8333 215.5,34.1667 201.5,44.5C 219.834,34.6688 237.834,24.3355 255.5,13.5C 261.417,13.216 267.084,13.8827 272.5,15.5C 259.326,24.2533 246.326,33.2533 233.5,42.5C 248.998,34.5878 263.998,25.9211 278.5,16.5C 294.976,19.9915 310.643,25.6582 325.5,33.5C 326.298,33.9569 326.631,34.6236 326.5,35.5C 329.016,35.7553 331.35,36.5886 333.5,38C 342.521,43.8444 351.188,50.1778 359.5,57C 363.078,60.0724 366.078,63.5724 368.5,67.5C 361.457,72.5274 354.124,77.1941 346.5,81.5C 319.742,57.8011 288.408,46.8011 252.5,48.5C 249.281,46.0025 246.281,46.3359 243.5,49.5C 235.549,51.3809 227.549,53.0476 219.5,54.5C 218.518,53.8592 217.518,53.1925 216.5,52.5C 211.935,54.9412 207.602,57.6079 203.5,60.5C 194.499,64.9981 185.832,69.9981 177.5,75.5C 175.596,75.7376 174.262,76.7376 173.5,78.5C 134.406,111.455 121.406,152.789 134.5,202.5C 125.167,207.833 115.833,213.167 106.5,218.5C 100.277,200.951 98.9438,182.951 102.5,164.5C 103.833,164.167 103.833,163.833 102.5,163.5C 103.521,146.849 106.355,130.516 111,114.5C 111.662,113.016 112.496,111.683 113.5,110.5C 121.379,105.401 129.045,100.067 136.5,94.5C 128.874,97.9795 121.54,101.98 114.5,106.5C 116.35,99.2686 119.35,92.6019 123.5,86.5C 132.061,81.6032 140.061,75.9365 147.5,69.5C 140.342,72.9117 133.342,76.5784 126.5,80.5C 143.772,49.5757 169.439,28.909 203.5,18.5C 202.432,21.0752 200.765,23.2419 198.5,25C 194.249,27.9454 190.249,31.112 186.5,34.5C 197.763,28.5583 208.763,22.2249 219.5,15.5C 227.461,12.6471 235.461,11.9805 243.5,13.5 Z M 243.5,13.5 C 247.5,13.5 251.5,13.5 255.5,13.5C 237.834,24.3355 219.834,34.6688 201.5,44.5C 215.5,34.1667 229.5,23.8333 243.5,13.5 Z M 233.5,42.5 C 233.027,43.9063 232.027,44.573 230.5,44.5C 230.973,43.0937 231.973,42.427 233.5,42.5 Z M 150.5,67.5 C 150.027,68.9063 149.027,69.573 147.5,69.5C 147.973,68.0937 148.973,67.427 150.5,67.5 Z M 139.5,92.5 C 139.027,93.9063 138.027,94.573 136.5,94.5C 136.973,93.0937 137.973,92.427 139.5,92.5 Z"/></g>
<g><path style="opacity:0.498" fill="#c5353d" d="M 198.5,13.5 C 197.341,15.2503 195.674,16.2503 193.5,16.5C 194.659,14.7497 196.326,13.7497 198.5,13.5 Z"/></g>
<g><path style="opacity:0.498" fill="#d1363e" d="M 156.5,37.5 C 153.874,39.8235 151.207,42.1568 148.5,44.5C 149.877,40.7947 152.544,38.4613 156.5,37.5 Z"/></g>
<g><path style="opacity:1" fill="#e9dbdb" d="M 252.5,48.5 C 249.713,49.4767 246.713,49.81 243.5,49.5C 246.281,46.3359 249.281,46.0025 252.5,48.5 Z"/></g>
<g><path style="opacity:0.997" fill="#2a2828" d="M 252.5,48.5 C 288.408,46.8011 319.742,57.8011 346.5,81.5C 347.5,82.8333 348.5,84.1667 349.5,85.5C 351.372,88.5819 353.705,91.2486 356.5,93.5C 356.5,93.8333 356.5,94.1667 356.5,94.5C 358.537,97.8534 360.87,100.853 363.5,103.5C 363.66,105.153 364.326,106.486 365.5,107.5C 366.376,111.582 368.043,115.249 370.5,118.5C 370.833,119.833 371.167,121.167 371.5,122.5C 372.54,126.042 373.874,129.375 375.5,132.5C 375.5,132.833 375.5,133.167 375.5,133.5C 376.055,137.397 377.055,141.063 378.5,144.5C 378.232,146.099 378.566,147.432 379.5,148.5C 379.229,153.434 379.896,158.1 381.5,162.5C 381.5,164.167 381.5,165.833 381.5,167.5C 381.5,172.167 381.5,176.833 381.5,181.5C 381.567,182.959 381.234,184.292 380.5,185.5C 378.89,196.889 375.89,207.889 371.5,218.5C 371.5,219.167 371.5,219.833 371.5,220.5C 370.833,220.5 370.5,220.833 370.5,221.5C 364.993,230.515 358.993,239.182 352.5,247.5C 352.167,248.167 351.833,248.833 351.5,249.5C 350.833,249.5 350.5,249.833 350.5,250.5C 349.833,250.5 349.5,250.833 349.5,251.5C 336.088,263.917 321.088,273.917 304.5,281.5C 300.031,282.435 295.697,283.768 291.5,285.5C 283.637,287.799 275.637,289.466 267.5,290.5C 264.873,291.092 262.206,291.425 259.5,291.5C 240.369,292.588 221.702,290.254 203.5,284.5C 202.71,283.599 201.71,282.932 200.5,282.5C 196.584,279.71 192.251,277.71 187.5,276.5C 186.205,275.512 184.872,274.512 183.5,273.5C 180.373,270.102 176.707,267.435 172.5,265.5C 171.5,265.167 170.833,264.5 170.5,263.5C 164.418,257.755 158.751,251.755 153.5,245.5C 153.068,244.29 152.401,243.29 151.5,242.5C 150.521,238.539 148.521,235.206 145.5,232.5C 145.167,231.167 144.833,229.833 144.5,228.5C 141.192,221.24 138.192,213.907 135.5,206.5C 134.766,205.292 134.433,203.959 134.5,202.5C 121.406,152.789 134.406,111.455 173.5,78.5C 175.404,78.2624 176.738,77.2624 177.5,75.5C 185.832,69.9981 194.499,64.9981 203.5,60.5C 208.974,58.678 214.308,56.678 219.5,54.5C 227.549,53.0476 235.549,51.3809 243.5,49.5C 246.713,49.81 249.713,49.4767 252.5,48.5 Z"/></g>
<g><path style="opacity:0.997" fill="#f4eaea" d="M 219.5,54.5 C 214.308,56.678 208.974,58.678 203.5,60.5C 207.602,57.6079 211.935,54.9412 216.5,52.5C 217.518,53.1925 218.518,53.8592 219.5,54.5 Z"/></g>
<g><path style="opacity:1" fill="#fcf9fa" d="M 249.5,55.5 C 238.015,64.1368 226.349,72.6368 214.5,81C 213.304,81.6543 213.304,82.1543 214.5,82.5C 229.729,73.7256 244.729,64.7256 259.5,55.5C 265.084,55.2549 270.417,55.9216 275.5,57.5C 264.201,64.8096 253.201,72.4763 242.5,80.5C 215.745,86.2854 195.078,100.619 180.5,123.5C 178.273,124.401 177.273,126.067 177.5,128.5C 177.267,130.062 176.6,131.395 175.5,132.5C 165.5,137.833 155.5,143.167 145.5,148.5C 145.867,143.992 146.867,139.659 148.5,135.5C 161.953,126.554 175.286,117.387 188.5,108C 187.092,107.685 185.759,108.018 184.5,109C 173.275,115.776 161.942,122.276 150.5,128.5C 151.704,123.105 153.704,118.105 156.5,113.5C 163.47,108.343 170.47,103.176 177.5,98C 171.494,100.84 165.494,104.007 159.5,107.5C 172.608,83.0762 192.608,67.0762 219.5,59.5C 216.94,62.4579 213.94,64.9579 210.5,67C 209.304,67.6543 209.304,68.1543 210.5,68.5C 216.564,64.8079 222.564,61.1412 228.5,57.5C 235.391,55.9182 242.391,55.2516 249.5,55.5 Z"/></g>
<g><path style="opacity:1" fill="#ea4a51" d="M 249.5,55.5 C 252.833,55.5 256.167,55.5 259.5,55.5C 244.729,64.7256 229.729,73.7256 214.5,82.5C 213.304,82.1543 213.304,81.6543 214.5,81C 226.349,72.6368 238.015,64.1368 249.5,55.5 Z"/></g>
<g><path style="opacity:1" fill="#e9424b" d="M 275.5,57.5 C 278.545,57.5079 281.545,57.8413 284.5,58.5C 272.332,66.0852 259.999,73.4185 247.5,80.5C 245.833,80.5 244.167,80.5 242.5,80.5C 253.201,72.4763 264.201,64.8096 275.5,57.5 Z"/></g>
<g><path style="opacity:1" fill="#e25358" d="M 228.5,57.5 C 222.564,61.1412 216.564,64.8079 210.5,68.5C 209.304,68.1543 209.304,67.6543 210.5,67C 213.94,64.9579 216.94,62.4579 219.5,59.5C 222.402,58.4222 225.402,57.7556 228.5,57.5 Z"/></g>
<g><path style="opacity:1" fill="#f9f5f5" d="M 284.5,58.5 C 288.395,59.4624 292.061,60.7957 295.5,62.5C 286.833,68.8333 278.167,75.1667 269.5,81.5C 262.196,80.6979 254.862,80.3646 247.5,80.5C 259.999,73.4185 272.332,66.0852 284.5,58.5 Z"/></g>
<g><path style="opacity:0.998" fill="#e74149" d="M 295.5,62.5 C 298.38,62.9402 301.046,63.9402 303.5,65.5C 294.203,71.1522 284.869,76.8189 275.5,82.5C 273.5,82.1667 271.5,81.8333 269.5,81.5C 278.167,75.1667 286.833,68.8333 295.5,62.5 Z"/></g>
<g><path style="opacity:1" fill="#fbf6f7" d="M 303.5,65.5 C 306.669,66.9166 309.669,68.5832 312.5,70.5C 304.795,76.1923 296.795,81.5256 288.5,86.5C 283.951,85.5368 279.617,84.2035 275.5,82.5C 284.869,76.8189 294.203,71.1522 303.5,65.5 Z"/></g>
<g><path style="opacity:0.675" fill="#de3742" d="M 123.5,71.5 C 121.727,74.0599 119.727,76.3932 117.5,78.5C 118.092,74.9111 120.092,72.5778 123.5,71.5 Z"/></g>
<g><path style="opacity:1" fill="#bcafb0" d="M 177.5,75.5 C 176.738,77.2624 175.404,78.2624 173.5,78.5C 174.262,76.7376 175.596,75.7376 177.5,75.5 Z"/></g>
<g><path style="opacity:1" fill="#e94f55" d="M 312.5,70.5 C 313.71,70.9321 314.71,71.5987 315.5,72.5C 306.965,77.263 298.632,82.263 290.5,87.5C 289.508,87.6716 288.842,87.3382 288.5,86.5C 296.795,81.5256 304.795,76.1923 312.5,70.5 Z"/></g>
<g><path style="opacity:1" fill="#ea585e" d="M 323.5,78.5 C 324.492,78.3284 325.158,78.6618 325.5,79.5C 318.365,83.2352 311.365,87.2352 304.5,91.5C 303.304,91.1543 303.304,90.6543 304.5,90C 310.861,86.1554 317.194,82.3221 323.5,78.5 Z"/></g>
<g><path style="opacity:1" fill="#2a2828" d="M 242.5,80.5 C 244.167,80.5 245.833,80.5 247.5,80.5C 254.862,80.3646 262.196,80.6979 269.5,81.5C 271.5,81.8333 273.5,82.1667 275.5,82.5C 279.617,84.2035 283.951,85.5368 288.5,86.5C 288.842,87.3382 289.508,87.6716 290.5,87.5C 297.619,90.8931 304.619,94.5597 311.5,98.5C 311.5,99.1667 311.833,99.5 312.5,99.5C 315.28,102.064 318.28,104.397 321.5,106.5C 322.5,108.167 323.833,109.5 325.5,110.5C 326.8,113.432 328.8,115.766 331.5,117.5C 331.427,119.027 332.094,120.027 333.5,120.5C 334.917,123.669 336.583,126.669 338.5,129.5C 338.328,130.492 338.662,131.158 339.5,131.5C 340.658,134.989 341.991,138.322 343.5,141.5C 343.232,143.099 343.566,144.432 344.5,145.5C 344.956,149.664 345.622,153.664 346.5,157.5C 346.5,159.167 346.5,160.833 346.5,162.5C 346.55,175.197 344.55,187.53 340.5,199.5C 339.4,200.605 338.733,201.938 338.5,203.5C 319.358,243.281 287.691,261.615 243.5,258.5C 240.997,257.629 238.33,256.963 235.5,256.5C 230.772,255.651 226.105,254.485 221.5,253C 214.804,250.052 208.137,247.219 201.5,244.5C 200.421,242.457 198.754,241.124 196.5,240.5C 193.859,238.196 191.192,235.862 188.5,233.5C 187.833,232.167 186.833,231.167 185.5,230.5C 183.138,227.808 180.804,225.141 178.5,222.5C 178.672,221.508 178.338,220.842 177.5,220.5C 176.071,217.304 174.405,214.304 172.5,211.5C 172.672,210.508 172.338,209.842 171.5,209.5C 170.733,205.851 169.4,202.518 167.5,199.5C 167.795,197.265 167.461,195.265 166.5,193.5C 166.54,190.119 166.207,186.786 165.5,183.5C 165.5,182.833 165.5,182.167 165.5,181.5C 165.285,173.046 165.952,164.712 167.5,156.5C 167.5,155.833 167.5,155.167 167.5,154.5C 169.096,148.714 171.096,143.047 173.5,137.5C 174.441,135.95 175.107,134.284 175.5,132.5C 176.6,131.395 177.267,130.062 177.5,128.5C 178.89,127.101 179.89,125.434 180.5,123.5C 195.078,100.619 215.745,86.2854 242.5,80.5 Z"/></g>
<g><path style="opacity:1" fill="#fcf8f8" d="M 315.5,72.5 C 318.533,74.016 321.2,76.016 323.5,78.5C 317.194,82.3221 310.861,86.1554 304.5,90C 303.304,90.6543 303.304,91.1543 304.5,91.5C 311.365,87.2352 318.365,83.2352 325.5,79.5C 327.833,81.1667 329.833,83.1667 331.5,85.5C 325.211,90.3178 318.544,94.6511 311.5,98.5C 304.619,94.5597 297.619,90.8931 290.5,87.5C 298.632,82.263 306.965,77.263 315.5,72.5 Z"/></g>
<g><path style="opacity:0.959" fill="#e63742" d="M 372.5,71.5 C 375.55,73.5491 377.883,76.2157 379.5,79.5C 377.611,80.604 375.945,81.9373 374.5,83.5C 376.5,82.8333 378.5,82.1667 380.5,81.5C 383.471,83.4426 385.471,86.1092 386.5,89.5C 378.851,94.1397 371.184,98.8063 363.5,103.5C 360.87,100.853 358.537,97.8534 356.5,94.5C 357.833,94.1667 357.833,93.8333 356.5,93.5C 353.705,91.2486 351.372,88.5819 349.5,85.5C 357.369,81.0701 365.036,76.4034 372.5,71.5 Z M 374.5,83.5 C 373.341,85.2503 371.674,86.2503 369.5,86.5C 370.659,84.7497 372.326,83.7497 374.5,83.5 Z M 369.5,86.5 C 369.027,87.9063 368.027,88.573 366.5,88.5C 366.973,87.0937 367.973,86.427 369.5,86.5 Z"/></g>
<g><path style="opacity:1" fill="#ea4d54" d="M 331.5,85.5 C 332.5,85.8333 333.167,86.5 333.5,87.5C 326.671,91.7495 319.671,95.7495 312.5,99.5C 311.833,99.5 311.5,99.1667 311.5,98.5C 318.544,94.6511 325.211,90.3178 331.5,85.5 Z"/></g>
<g><path style="opacity:1" fill="#fcf9f9" d="M 333.5,87.5 C 336.243,89.2393 338.243,91.5726 339.5,94.5C 333.5,98.5 327.5,102.5 321.5,106.5C 318.28,104.397 315.28,102.064 312.5,99.5C 319.671,95.7495 326.671,91.7495 333.5,87.5 Z"/></g>
<g><path style="opacity:1" fill="#e73a44" d="M 260.5,91.5 C 248.023,97.2409 236.689,104.741 226.5,114C 240.2,107.312 253.533,99.8124 266.5,91.5C 271.052,92.0566 275.385,93.0566 279.5,94.5C 264.933,104.819 251.266,115.486 238.5,126.5C 255.194,116.822 271.861,107.155 288.5,97.5C 291.992,98.4097 294.992,100.076 297.5,102.5C 283.9,112.312 270.234,122.145 256.5,132C 257.908,132.315 259.241,131.982 260.5,131C 270.363,124.903 280.363,119.069 290.5,113.5C 294.701,110.9 299.034,108.566 303.5,106.5C 309.092,109.091 313.426,113.091 316.5,118.5C 302.9,127.978 289.233,137.478 275.5,147C 290.174,139.155 304.841,130.989 319.5,122.5C 321.664,124.822 323.331,127.489 324.5,130.5C 312.304,137.762 300.637,145.762 289.5,154.5C 301.674,147.579 314.007,140.912 326.5,134.5C 328.02,136.89 329.02,139.557 329.5,142.5C 328.244,142.461 327.244,142.961 326.5,144C 327.577,144.47 328.577,144.303 329.5,143.5C 331.277,146.505 332.277,149.838 332.5,153.5C 329.06,155.055 325.727,156.888 322.5,159C 309.676,168.579 296.676,177.912 283.5,187C 284.908,187.315 286.241,186.982 287.5,186C 302.725,176.89 318.058,168.057 333.5,159.5C 335.25,171.013 334.583,182.347 331.5,193.5C 325.377,197.783 319.377,202.283 313.5,207C 319.326,204.754 324.993,201.92 330.5,198.5C 325.923,212.385 317.923,223.719 306.5,232.5C 299.004,235.745 292.004,239.745 285.5,244.5C 271.389,250 257.056,251.333 242.5,248.5C 251.342,241.831 260.342,235.331 269.5,229C 270.696,228.346 270.696,227.846 269.5,227.5C 258.104,234.193 246.77,240.86 235.5,247.5C 224.077,245.122 214.077,240.122 205.5,232.5C 222.621,220.552 239.621,208.386 256.5,196C 237.826,206.179 219.159,216.679 200.5,227.5C 198.583,226.091 196.75,224.424 195,222.5C 194.383,221.551 194.549,220.718 195.5,220C 191.689,218.878 189.356,216.378 188.5,212.5C 199.799,205.19 210.799,197.524 221.5,189.5C 209.674,195.579 198.007,201.912 186.5,208.5C 184.657,206.147 183.323,203.48 182.5,200.5C 193.799,193.19 204.799,185.524 215.5,177.5C 203.871,183.314 192.538,189.648 181.5,196.5C 179.215,190.486 177.881,184.152 177.5,177.5C 190.343,168.164 203.343,158.997 216.5,150C 215.092,149.685 213.759,150.018 212.5,151C 200.608,158.11 188.608,164.943 176.5,171.5C 176.5,167.833 176.5,164.167 176.5,160.5C 189.622,151.218 202.622,141.718 215.5,132C 214.092,131.685 212.759,132.018 211.5,133C 200.275,139.776 188.942,146.276 177.5,152.5C 177.905,147.544 179.238,142.877 181.5,138.5C 188.47,133.009 195.47,127.509 202.5,122C 196.178,124.33 190.178,127.497 184.5,131.5C 195.252,111.258 211.919,98.4249 234.5,93C 243.229,90.6497 251.896,90.1497 260.5,91.5 Z"/></g>
<g><path style="opacity:1" fill="#feedee" d="M 260.5,91.5 C 262.5,91.5 264.5,91.5 266.5,91.5C 253.533,99.8124 240.2,107.312 226.5,114C 236.689,104.741 248.023,97.2409 260.5,91.5 Z"/></g>
<g><path style="opacity:1" fill="#fdf2f2" d="M 279.5,94.5 C 282.785,94.9281 285.785,95.9281 288.5,97.5C 271.861,107.155 255.194,116.822 238.5,126.5C 251.266,115.486 264.933,104.819 279.5,94.5 Z"/></g>
<g><path style="opacity:1" fill="#e8424a" d="M 339.5,94.5 C 341.587,95.5846 342.92,97.2512 343.5,99.5C 337.5,103.167 331.5,106.833 325.5,110.5C 323.833,109.5 322.5,108.167 321.5,106.5C 327.5,102.5 333.5,98.5 339.5,94.5 Z"/></g>
<g><path style="opacity:0.957" fill="#e73743" d="M 389.5,94.5 C 391.943,97.0516 393.61,100.052 394.5,103.5C 386.156,108.003 378.156,113.003 370.5,118.5C 368.043,115.249 366.376,111.582 365.5,107.5C 373.5,103.167 381.5,98.8333 389.5,94.5 Z"/></g>
<g><path style="opacity:1" fill="#fcf7f7" d="M 343.5,99.5 C 345.9,101.296 347.567,103.63 348.5,106.5C 343.352,110.911 337.686,114.578 331.5,117.5C 328.8,115.766 326.8,113.432 325.5,110.5C 331.5,106.833 337.5,103.167 343.5,99.5 Z"/></g>
<g><path style="opacity:0.941" fill="#bf353d" d="M 105.5,100.5 C 105.25,102.674 104.25,104.341 102.5,105.5C 102.273,103.067 103.273,101.401 105.5,100.5 Z"/></g>
<g><path style="opacity:1" fill="#fdeff0" d="M 297.5,102.5 C 299.153,102.66 300.486,103.326 301.5,104.5C 297.499,107.175 293.832,110.175 290.5,113.5C 280.363,119.069 270.363,124.903 260.5,131C 259.241,131.982 257.908,132.315 256.5,132C 270.234,122.145 283.9,112.312 297.5,102.5 Z"/></g>
<g><path style="opacity:1" fill="#e84e55" d="M 156.5,113.5 C 156.975,111.216 157.975,109.216 159.5,107.5C 165.494,104.007 171.494,100.84 177.5,98C 170.47,103.176 163.47,108.343 156.5,113.5 Z"/></g>
<g><path style="opacity:1" fill="#e7484f" d="M 348.5,106.5 C 349.674,107.514 350.34,108.847 350.5,110.5C 344.833,113.833 339.167,117.167 333.5,120.5C 332.094,120.027 331.427,119.027 331.5,117.5C 337.686,114.578 343.352,110.911 348.5,106.5 Z"/></g>
<g><path style="opacity:1" fill="#f5a4a9" d="M 301.5,104.5 C 302.5,104.833 303.167,105.5 303.5,106.5C 299.034,108.566 294.701,110.9 290.5,113.5C 293.832,110.175 297.499,107.175 301.5,104.5 Z"/></g>
<g><path style="opacity:1" fill="#fbf7f7" d="M 350.5,110.5 C 352.873,112.579 354.206,115.246 354.5,118.5C 349.129,122.179 343.796,125.846 338.5,129.5C 336.583,126.669 334.917,123.669 333.5,120.5C 339.167,117.167 344.833,113.833 350.5,110.5 Z"/></g>
<g><path style="opacity:1" fill="#e84b51" d="M 148.5,135.5 C 148.394,132.921 149.061,130.588 150.5,128.5C 161.942,122.276 173.275,115.776 184.5,109C 185.759,108.018 187.092,107.685 188.5,108C 175.286,117.387 161.953,126.554 148.5,135.5 Z"/></g>
<g><path style="opacity:1" fill="#fce9ea" d="M 316.5,118.5 C 317.974,119.436 318.974,120.77 319.5,122.5C 304.841,130.989 290.174,139.155 275.5,147C 289.233,137.478 302.9,127.978 316.5,118.5 Z"/></g>
<g><path style="opacity:1" fill="#e7454d" d="M 354.5,118.5 C 356.104,119.287 356.771,120.62 356.5,122.5C 350.702,125.233 345.035,128.233 339.5,131.5C 338.662,131.158 338.328,130.492 338.5,129.5C 343.796,125.846 349.129,122.179 354.5,118.5 Z"/></g>
<g><path style="opacity:0.961" fill="#e73742" d="M 396.5,108.5 C 397.376,108.369 398.043,108.702 398.5,109.5C 399.513,112.188 400.513,114.854 401.5,117.5C 401.062,117.435 400.728,117.601 400.5,118C 403.487,120.785 404.821,124.285 404.5,128.5C 396.08,134.257 387.414,139.59 378.5,144.5C 377.055,141.063 376.055,137.397 375.5,133.5C 376.833,133.167 376.833,132.833 375.5,132.5C 373.874,129.375 372.54,126.042 371.5,122.5C 379.995,118.087 388.328,113.42 396.5,108.5 Z M 398.5,119.5 C 398.027,120.906 397.027,121.573 395.5,121.5C 395.973,120.094 396.973,119.427 398.5,119.5 Z"/></g>
<g><path style="opacity:1" fill="#fcf6f6" d="M 356.5,122.5 C 358.585,124.684 359.585,127.351 359.5,130.5C 354.204,134.154 348.871,137.821 343.5,141.5C 341.991,138.322 340.658,134.989 339.5,131.5C 345.035,128.233 350.702,125.233 356.5,122.5 Z"/></g>
<g><path style="opacity:1" fill="#c74e53" d="M 180.5,123.5 C 179.89,125.434 178.89,127.101 177.5,128.5C 177.273,126.067 178.273,124.401 180.5,123.5 Z"/></g>
<g><path style="opacity:1" fill="#fbebec" d="M 181.5,138.5 C 181.925,135.881 182.925,133.547 184.5,131.5C 190.178,127.497 196.178,124.33 202.5,122C 195.47,127.509 188.47,133.009 181.5,138.5 Z"/></g>
<g><path style="opacity:1" fill="#fce9ea" d="M 324.5,130.5 C 325.674,131.514 326.34,132.847 326.5,134.5C 314.007,140.912 301.674,147.579 289.5,154.5C 300.637,145.762 312.304,137.762 324.5,130.5 Z"/></g>
<g><path style="opacity:1" fill="#e64049" d="M 359.5,130.5 C 361.074,132.102 361.741,134.102 361.5,136.5C 355.702,139.233 350.035,142.233 344.5,145.5C 343.566,144.432 343.232,143.099 343.5,141.5C 348.871,137.821 354.204,134.154 359.5,130.5 Z"/></g>
<g><path style="opacity:1" fill="#e8444c" d="M 175.5,132.5 C 175.107,134.284 174.441,135.95 173.5,137.5C 164.167,143.5 154.833,149.5 145.5,155.5C 145.5,153.167 145.5,150.833 145.5,148.5C 155.5,143.167 165.5,137.833 175.5,132.5 Z"/></g>
<g><path style="opacity:0.958" fill="#e73742" d="M 406.5,133.5 C 408.222,136.92 408.889,140.586 408.5,144.5C 399.291,150.265 390.291,156.265 381.5,162.5C 379.896,158.1 379.229,153.434 379.5,148.5C 388.634,143.766 397.634,138.766 406.5,133.5 Z"/></g>
<g><path style="opacity:1" fill="#fbf7f8" d="M 361.5,136.5 C 363.118,139.171 363.785,142.171 363.5,145.5C 357.62,149.267 351.954,153.267 346.5,157.5C 345.622,153.664 344.956,149.664 344.5,145.5C 350.035,142.233 355.702,139.233 361.5,136.5 Z"/></g>
<g><path style="opacity:1" fill="#fdedee" d="M 176.5,160.5 C 177.092,157.873 177.425,155.206 177.5,152.5C 188.942,146.276 200.275,139.776 211.5,133C 212.759,132.018 214.092,131.685 215.5,132C 202.622,141.718 189.622,151.218 176.5,160.5 Z"/></g>
<g><path style="opacity:1" fill="#fcf9f9" d="M 173.5,137.5 C 171.096,143.047 169.096,148.714 167.5,154.5C 165.77,155.026 164.436,156.026 163.5,157.5C 157.036,160.566 150.702,163.899 144.5,167.5C 144.237,163.4 144.57,159.4 145.5,155.5C 154.833,149.5 164.167,143.5 173.5,137.5 Z"/></g>
<g><path style="opacity:1" fill="#f7b1b4" d="M 329.5,142.5 C 329.5,142.833 329.5,143.167 329.5,143.5C 328.577,144.303 327.577,144.47 326.5,144C 327.244,142.961 328.244,142.461 329.5,142.5 Z"/></g>
<g><path style="opacity:1" fill="#e64149" d="M 363.5,145.5 C 365.163,147.438 365.829,149.772 365.5,152.5C 359.036,155.566 352.702,158.899 346.5,162.5C 346.5,160.833 346.5,159.167 346.5,157.5C 351.954,153.267 357.62,149.267 363.5,145.5 Z"/></g>
<g><path style="opacity:1" fill="#f9f7f7" d="M 365.5,152.5 C 367.565,162.454 367.898,172.454 366.5,182.5C 357.833,188.167 349.167,193.833 340.5,199.5C 344.55,187.53 346.55,175.197 346.5,162.5C 352.702,158.899 359.036,155.566 365.5,152.5 Z"/></g>
<g><path style="opacity:0.953" fill="#e73743" d="M 409.5,151.5 C 410.117,151.611 410.617,151.944 411,152.5C 411.498,155.817 411.665,159.15 411.5,162.5C 401.19,168.323 391.19,174.656 381.5,181.5C 381.5,176.833 381.5,172.167 381.5,167.5C 390.833,162.167 400.167,156.833 409.5,151.5 Z"/></g>
<g><path style="opacity:1" fill="#fceded" d="M 332.5,153.5 C 333.341,155.379 333.675,157.379 333.5,159.5C 318.058,168.057 302.725,176.89 287.5,186C 286.241,186.982 284.908,187.315 283.5,187C 296.676,177.912 309.676,168.579 322.5,159C 325.727,156.888 329.06,155.055 332.5,153.5 Z"/></g>
<g><path style="opacity:1" fill="#f17c81" d="M 167.5,154.5 C 167.5,155.167 167.5,155.833 167.5,156.5C 166.167,156.833 164.833,157.167 163.5,157.5C 164.436,156.026 165.77,155.026 167.5,154.5 Z"/></g>
<g><path style="opacity:1" fill="#f5a1a5" d="M 289.5,154.5 C 288.335,156.416 286.668,157.249 284.5,157C 285.91,155.628 287.577,154.795 289.5,154.5 Z"/></g>
<g><path style="opacity:1" fill="#fce8e9" d="M 177.5,177.5 C 177.167,175.5 176.833,173.5 176.5,171.5C 188.608,164.943 200.608,158.11 212.5,151C 213.759,150.018 215.092,149.685 216.5,150C 203.343,158.997 190.343,168.164 177.5,177.5 Z"/></g>
<g><path style="opacity:1" fill="#ec565c" d="M 163.5,157.5 C 157.464,162.191 151.131,166.525 144.5,170.5C 144.5,169.5 144.5,168.5 144.5,167.5C 150.702,163.899 157.036,160.566 163.5,157.5 Z"/></g>
<g><path style="opacity:1" fill="#fcf7f7" d="M 167.5,156.5 C 165.952,164.712 165.285,173.046 165.5,181.5C 159.13,184.679 153.13,188.346 147.5,192.5C 146.419,189.373 145.753,186.04 145.5,182.5C 149.221,180.646 152.554,178.313 155.5,175.5C 152.183,177.137 148.85,178.804 145.5,180.5C 144.521,177.375 144.187,174.042 144.5,170.5C 151.131,166.525 157.464,162.191 163.5,157.5C 164.833,157.167 166.167,156.833 167.5,156.5 Z"/></g>
<g><path style="opacity:1" fill="#f0767c" d="M 155.5,175.5 C 156.002,173.915 157.002,173.415 158.5,174C 157.756,175.039 156.756,175.539 155.5,175.5 Z"/></g>
<g><path style="opacity:1" fill="#f9c8cb" d="M 215.5,177.5 C 216.002,175.915 217.002,175.415 218.5,176C 217.756,177.039 216.756,177.539 215.5,177.5 Z"/></g>
<g><path style="opacity:1" fill="#ec5a60" d="M 155.5,175.5 C 152.554,178.313 149.221,180.646 145.5,182.5C 145.5,181.833 145.5,181.167 145.5,180.5C 148.85,178.804 152.183,177.137 155.5,175.5 Z"/></g>
<g><path style="opacity:0.963" fill="#e53742" d="M 411.5,168.5 C 412.791,172.399 412.791,176.399 411.5,180.5C 409.973,180.427 408.973,181.094 408.5,182.5C 409.609,182.443 410.609,182.11 411.5,181.5C 411.706,185.898 411.373,190.232 410.5,194.5C 397.5,202.5 384.5,210.5 371.5,218.5C 375.89,207.889 378.89,196.889 380.5,185.5C 390.967,180.1 401.3,174.433 411.5,168.5 Z"/></g>
<g><path style="opacity:0.997" fill="#fbf7f7" d="M 165.5,183.5 C 166.207,186.786 166.54,190.119 166.5,193.5C 161.006,197.082 155.339,200.415 149.5,203.5C 148.213,200.302 147.547,196.969 147.5,193.5C 153.5,190.167 159.5,186.833 165.5,183.5 Z"/></g>
<g><path style="opacity:1" fill="#fdedee" d="M 215.5,177.5 C 204.799,185.524 193.799,193.19 182.5,200.5C 182.167,199.167 181.833,197.833 181.5,196.5C 192.538,189.648 203.871,183.314 215.5,177.5 Z"/></g>
<g><path style="opacity:1" fill="#e8474e" d="M 366.5,182.5 C 366.675,184.621 366.341,186.621 365.5,188.5C 356.366,193.234 347.366,198.234 338.5,203.5C 338.733,201.938 339.4,200.605 340.5,199.5C 349.167,193.833 357.833,188.167 366.5,182.5 Z"/></g>
<g><path style="opacity:1" fill="#f9c3c6" d="M 221.5,189.5 C 222.002,187.915 223.002,187.415 224.5,188C 223.756,189.039 222.756,189.539 221.5,189.5 Z"/></g>
<g><path style="opacity:0.999" fill="#fcfafa" d="M 365.5,188.5 C 364.255,203.489 359.921,217.489 352.5,230.5C 349.54,231.032 349.207,231.699 351.5,232.5C 337.745,256.251 317.745,272.251 291.5,280.5C 293.237,278.45 295.237,276.617 297.5,275C 297.167,274.833 296.833,274.667 296.5,274.5C 292.599,276.608 288.933,278.941 285.5,281.5C 277.341,283.789 269.007,285.122 260.5,285.5C 268.783,279.885 276.783,273.885 284.5,267.5C 273.667,272.746 263.334,278.746 253.5,285.5C 248.073,285.782 242.74,285.449 237.5,284.5C 239.927,282.442 242.593,280.609 245.5,279C 246.696,278.346 246.696,277.846 245.5,277.5C 241.939,279.779 238.273,281.779 234.5,283.5C 228.68,283.036 223.014,281.869 217.5,280C 214.826,279.33 212.493,278.163 210.5,276.5C 219.784,271.186 228.784,265.353 237.5,259C 239.473,258.505 241.473,258.338 243.5,258.5C 287.691,261.615 319.358,243.281 338.5,203.5C 347.366,198.234 356.366,193.234 365.5,188.5 Z"/></g>
<g><path style="opacity:0.98" fill="#ea4e55" d="M 165.5,181.5 C 165.5,182.167 165.5,182.833 165.5,183.5C 159.5,186.833 153.5,190.167 147.5,193.5C 147.5,193.167 147.5,192.833 147.5,192.5C 153.13,188.346 159.13,184.679 165.5,181.5 Z"/></g>
<g><path style="opacity:1" fill="#e54149" d="M 166.5,193.5 C 167.461,195.265 167.795,197.265 167.5,199.5C 162.433,203.229 157.099,206.562 151.5,209.5C 150.27,207.703 149.604,205.703 149.5,203.5C 155.339,200.415 161.006,197.082 166.5,193.5 Z"/></g>
<g><path style="opacity:1" fill="#fae6e7" d="M 331.5,193.5 C 331.634,195.292 331.301,196.958 330.5,198.5C 324.993,201.92 319.326,204.754 313.5,207C 319.377,202.283 325.377,197.783 331.5,193.5 Z"/></g>
<g><path style="opacity:1" fill="#fdecec" d="M 221.5,189.5 C 210.799,197.524 199.799,205.19 188.5,212.5C 187.326,211.486 186.66,210.153 186.5,208.5C 198.007,201.912 209.674,195.579 221.5,189.5 Z"/></g>
<g><path style="opacity:0.964" fill="#e63742" d="M 409.5,199.5 C 409.515,204.428 408.515,209.094 406.5,213.5C 388.472,224.844 370.472,236.177 352.5,247.5C 358.993,239.182 364.993,230.515 370.5,221.5C 371.167,221.5 371.5,221.167 371.5,220.5C 384.167,213.5 396.833,206.5 409.5,199.5 Z"/></g>
<g><path style="opacity:1" fill="#fcf7f8" d="M 167.5,199.5 C 169.4,202.518 170.733,205.851 171.5,209.5C 165.702,212.233 160.035,215.233 154.5,218.5C 153.302,215.574 152.302,212.574 151.5,209.5C 157.099,206.562 162.433,203.229 167.5,199.5 Z"/></g>
<g><path style="opacity:1" fill="#fef1f1" d="M 205.5,232.5 C 203.5,231.167 201.833,229.5 200.5,227.5C 219.159,216.679 237.826,206.179 256.5,196C 239.621,208.386 222.621,220.552 205.5,232.5 Z"/></g>
<g><path style="opacity:0.916" fill="#e6434b" d="M 171.5,209.5 C 172.338,209.842 172.672,210.508 172.5,211.5C 167.131,214.847 161.797,218.181 156.5,221.5C 155.599,220.71 154.932,219.71 154.5,218.5C 160.035,215.233 165.702,212.233 171.5,209.5 Z"/></g>
<g><path style="opacity:0.974" fill="#faf6f6" d="M 172.5,211.5 C 174.405,214.304 176.071,217.304 177.5,220.5C 171.965,223.767 166.298,226.767 160.5,229.5C 158.127,227.421 156.794,224.754 156.5,221.5C 161.797,218.181 167.131,214.847 172.5,211.5 Z"/></g>
<g><path style="opacity:0.963" fill="#e63743" d="M 135.5,206.5 C 138.192,213.907 141.192,221.24 144.5,228.5C 134.967,234.099 125.3,239.433 115.5,244.5C 113.408,241.912 112.075,238.912 111.5,235.5C 114.135,234.189 116.469,232.522 118.5,230.5C 115.669,231.079 113.336,232.412 111.5,234.5C 109.596,231.466 108.262,228.133 107.5,224.5C 116.833,218.5 126.167,212.5 135.5,206.5 Z M 123.5,227.5 C 123.027,228.906 122.027,229.573 120.5,229.5C 120.973,228.094 121.973,227.427 123.5,227.5 Z"/></g>
<g><path style="opacity:0.988" fill="#e73843" d="M 405.5,219.5 C 404.428,224.715 402.762,229.715 400.5,234.5C 399.833,234.5 399.5,234.833 399.5,235.5C 392.289,239.054 385.622,243.387 379.5,248.5C 386.461,245.353 393.127,241.687 399.5,237.5C 392.654,256.869 383.654,274.535 372.5,290.5C 367.616,299.378 361.616,307.378 354.5,314.5C 353.167,314.833 353.167,315.167 354.5,315.5C 331.454,343.048 308.954,371.048 287,399.5C 274.776,416.609 264.609,434.942 256.5,454.5C 255.833,455.833 255.167,455.833 254.5,454.5C 251.154,446.479 247.821,438.479 244.5,430.5C 249.445,427.189 253.778,423.189 257.5,418.5C 252.368,420.9 247.368,423.566 242.5,426.5C 237.691,418.898 232.858,411.231 228,403.5C 227.517,402.552 227.351,401.552 227.5,400.5C 228.167,400.5 228.5,400.167 228.5,399.5C 224.242,398.575 221.575,395.909 220.5,391.5C 224.382,389.066 228.048,386.399 231.5,383.5C 227.527,385.487 223.527,387.487 219.5,389.5C 216.41,387.732 214.41,385.065 213.5,381.5C 215.389,380.396 217.055,379.063 218.5,377.5C 216.181,377.992 214.181,378.992 212.5,380.5C 208.684,376.239 204.851,371.906 201,367.5C 200.517,366.552 200.351,365.552 200.5,364.5C 201.183,363.356 200.849,363.356 199.5,364.5C 197.016,362.2 195.016,359.533 193.5,356.5C 203.167,349.833 212.833,343.167 222.5,336.5C 212.033,341.9 201.7,347.567 191.5,353.5C 189.983,353.489 188.816,352.823 188,351.5C 186.579,349.595 185.412,347.595 184.5,345.5C 205.355,332.91 225.688,319.576 245.5,305.5C 224.167,317.5 202.833,329.5 181.5,341.5C 180.504,341.586 179.671,341.252 179,340.5C 177.25,338.266 175.75,335.932 174.5,333.5C 192.684,322.912 210.351,311.579 227.5,299.5C 209.032,309.568 190.699,319.901 172.5,330.5C 170.983,330.489 169.816,329.823 169,328.5C 167.579,326.595 166.412,324.595 165.5,322.5C 166.167,322.5 166.5,322.167 166.5,321.5C 162.203,320.536 159.536,317.87 158.5,313.5C 173.67,304.083 188.67,294.416 203.5,284.5C 221.702,290.254 240.369,292.588 259.5,291.5C 262.377,294.127 265.044,293.794 267.5,290.5C 275.637,289.466 283.637,287.799 291.5,285.5C 292.374,286.525 293.541,287.192 295,287.5C 298.468,285.856 301.635,283.856 304.5,281.5C 321.088,273.917 336.088,263.917 349.5,251.5C 350.167,251.5 350.5,251.167 350.5,250.5C 351.167,250.5 351.5,250.167 351.5,249.5C 369.5,239.5 387.5,229.5 405.5,219.5 Z M 379.5,248.5 C 378.341,250.25 376.674,251.25 374.5,251.5C 375.659,249.75 377.326,248.75 379.5,248.5 Z M 230.5,297.5 C 230.027,298.906 229.027,299.573 227.5,299.5C 227.973,298.094 228.973,297.427 230.5,297.5 Z M 171.5,318.5 C 170.341,320.25 168.674,321.25 166.5,321.5C 167.659,319.75 169.326,318.75 171.5,318.5 Z M 227.5,333.5 C 227.027,334.906 226.027,335.573 224.5,335.5C 224.973,334.094 225.973,333.427 227.5,333.5 Z M 221.5,375.5 C 221.027,376.906 220.027,377.573 218.5,377.5C 218.973,376.094 219.973,375.427 221.5,375.5 Z M 231.5,397.5 C 231.027,398.906 230.027,399.573 228.5,399.5C 228.973,398.094 229.973,397.427 231.5,397.5 Z"/></g>
<g><path style="opacity:1" fill="#e7454d" d="M 177.5,220.5 C 178.338,220.842 178.672,221.508 178.5,222.5C 173.204,226.154 167.871,229.821 162.5,233.5C 161.326,232.486 160.66,231.153 160.5,229.5C 166.298,226.767 171.965,223.767 177.5,220.5 Z"/></g>
<g><path style="opacity:1" fill="#fcf7f7" d="M 178.5,222.5 C 180.804,225.141 183.138,227.808 185.5,230.5C 179.13,233.679 173.13,237.346 167.5,241.5C 165.336,239.178 163.669,236.511 162.5,233.5C 167.871,229.821 173.204,226.154 178.5,222.5 Z"/></g>
<g><path style="opacity:1" fill="#e64049" d="M 185.5,230.5 C 186.833,231.167 187.833,232.167 188.5,233.5C 182.795,237.859 176.795,241.859 170.5,245.5C 169.026,244.564 168.026,243.23 167.5,241.5C 173.13,237.346 179.13,233.679 185.5,230.5 Z"/></g>
<g><path style="opacity:0.059" fill="#e94b54" d="M 352.5,230.5 C 352.167,231.167 351.833,231.833 351.5,232.5C 349.207,231.699 349.54,231.032 352.5,230.5 Z"/></g>
<g><path style="opacity:0.962" fill="#e63742" d="M 145.5,232.5 C 148.521,235.206 150.521,238.539 151.5,242.5C 141.998,248.419 132.331,254.086 122.5,259.5C 120.074,256.987 118.408,253.987 117.5,250.5C 126.833,244.5 136.167,238.5 145.5,232.5 Z"/></g>
<g><path style="opacity:1" fill="#fcebec" d="M 242.5,248.5 C 240.05,248.702 237.717,248.369 235.5,247.5C 246.77,240.86 258.104,234.193 269.5,227.5C 270.696,227.846 270.696,228.346 269.5,229C 260.342,235.331 251.342,241.831 242.5,248.5 Z"/></g>
<g><path style="opacity:1" fill="#fcf6f6" d="M 188.5,233.5 C 191.192,235.862 193.859,238.196 196.5,240.5C 190.201,244.988 183.534,248.988 176.5,252.5C 173.8,250.766 171.8,248.432 170.5,245.5C 176.795,241.859 182.795,237.859 188.5,233.5 Z"/></g>
<g><path style="opacity:0.982" fill="#e83d47" d="M 196.5,240.5 C 198.754,241.124 200.421,242.457 201.5,244.5C 195.5,248.167 189.5,251.833 183.5,255.5C 182.833,255.5 182.5,255.833 182.5,256.5C 182.167,256.5 181.833,256.5 181.5,256.5C 179.251,255.92 177.585,254.587 176.5,252.5C 183.534,248.988 190.201,244.988 196.5,240.5 Z"/></g>
<g><path style="opacity:1" fill="#e7d8d9" d="M 306.5,232.5 C 300.29,237.775 293.29,241.775 285.5,244.5C 292.004,239.745 299.004,235.745 306.5,232.5 Z"/></g>
<g><path style="opacity:0.99" fill="#fcfbfb" d="M 201.5,244.5 C 208.137,247.219 214.804,250.052 221.5,253C 226.105,254.485 230.772,255.651 235.5,256.5C 225.536,262.485 215.536,268.485 205.5,274.5C 196.744,270.587 188.91,265.253 182,258.5C 181.536,257.906 181.369,257.239 181.5,256.5C 181.833,256.5 182.167,256.5 182.5,256.5C 183.167,256.5 183.5,256.167 183.5,255.5C 189.5,251.833 195.5,248.167 201.5,244.5 Z"/></g>
<g><path style="opacity:0.959" fill="#e63743" d="M 153.5,245.5 C 158.751,251.755 164.418,257.755 170.5,263.5C 159.184,269.805 147.85,276.139 136.5,282.5C 133.551,280.627 131.551,277.961 130.5,274.5C 131.5,274.167 132.167,273.5 132.5,272.5C 131.508,272.328 130.842,272.662 130.5,273.5C 127.55,271.272 125.884,268.272 125.5,264.5C 134.833,258.167 144.167,251.833 153.5,245.5 Z M 137.5,269.5 C 137.027,270.906 136.027,271.573 134.5,271.5C 134.973,270.094 135.973,269.427 137.5,269.5 Z"/></g>
<g><path style="opacity:0.998" fill="#e5434b" d="M 235.5,256.5 C 238.33,256.963 240.997,257.629 243.5,258.5C 241.473,258.338 239.473,258.505 237.5,259C 228.784,265.353 219.784,271.186 210.5,276.5C 208.447,276.598 206.78,275.931 205.5,274.5C 215.536,268.485 225.536,262.485 235.5,256.5 Z"/></g>
<g><path style="opacity:0.962" fill="#e73842" d="M 172.5,265.5 C 176.707,267.435 180.373,270.102 183.5,273.5C 170.833,280.833 158.167,288.167 145.5,295.5C 142.442,293.757 140.442,291.09 139.5,287.5C 150.5,280.167 161.5,272.833 172.5,265.5 Z"/></g>
<g><path style="opacity:1" fill="#f17e83" d="M 284.5,267.5 C 285.002,265.915 286.002,265.415 287.5,266C 286.756,267.039 285.756,267.539 284.5,267.5 Z"/></g>
<g><path style="opacity:1" fill="#e9474f" d="M 284.5,267.5 C 276.783,273.885 268.783,279.885 260.5,285.5C 258.167,285.5 255.833,285.5 253.5,285.5C 263.334,278.746 273.667,272.746 284.5,267.5 Z"/></g>
<g><path style="opacity:0.962" fill="#e73742" d="M 187.5,276.5 C 192.251,277.71 196.584,279.71 200.5,282.5C 185.666,291.752 170.666,300.752 155.5,309.5C 152.502,307.497 150.169,304.83 148.5,301.5C 161.33,292.917 174.33,284.584 187.5,276.5 Z"/></g>
<g><path style="opacity:1" fill="#e84b52" d="M 291.5,280.5 C 289.5,280.833 287.5,281.167 285.5,281.5C 288.933,278.941 292.599,276.608 296.5,274.5C 296.833,274.667 297.167,274.833 297.5,275C 295.237,276.617 293.237,278.45 291.5,280.5 Z"/></g>
<g><path style="opacity:1" fill="#e4585e" d="M 237.5,284.5 C 236.209,284.737 235.209,284.404 234.5,283.5C 238.273,281.779 241.939,279.779 245.5,277.5C 246.696,277.846 246.696,278.346 245.5,279C 242.593,280.609 239.927,282.442 237.5,284.5 Z"/></g>
<g><path style="opacity:1" fill="#e9d4d5" d="M 304.5,281.5 C 301.635,283.856 298.468,285.856 295,287.5C 293.541,287.192 292.374,286.525 291.5,285.5C 295.697,283.768 300.031,282.435 304.5,281.5 Z"/></g>
<g><path style="opacity:1" fill="#e6d4d4" d="M 267.5,290.5 C 265.044,293.794 262.377,294.127 259.5,291.5C 262.206,291.425 264.873,291.092 267.5,290.5 Z"/></g>
<g><path style="opacity:0.157" fill="#c1353e" d="M 362.5,319.5 C 362.573,321.027 361.906,322.027 360.5,322.5C 360.427,320.973 361.094,319.973 362.5,319.5 Z"/></g>
<g><path style="opacity:0.827" fill="#be283e" d="M 206.5,454.5 C 203.659,455.669 200.659,456.669 197.5,457.5C 199.902,454.455 202.902,453.455 206.5,454.5 Z"/></g>
<g><path style="opacity:0.976" fill="#c22740" d="M 292.5,460.5 C 289.568,461.8 287.234,463.8 285.5,466.5C 289.335,464.75 293.001,462.75 296.5,460.5C 301.223,461.37 305.556,463.036 309.5,465.5C 306.833,467.5 304.5,469.833 302.5,472.5C 305.833,470.833 309.167,469.167 312.5,467.5C 317.497,468.755 321.663,471.422 325,475.5C 325.667,477.5 325.667,479.5 325,481.5C 322.674,483.066 320.508,484.732 318.5,486.5C 317.508,486.328 316.842,486.662 316.5,487.5C 307.987,491.715 298.987,494.548 289.5,496C 278.874,497.608 268.207,498.774 257.5,499.5C 260.833,496.167 264.167,492.833 267.5,489.5C 261.17,492.33 255.17,495.663 249.5,499.5C 243.402,500.117 237.735,499.45 232.5,497.5C 235.729,495.058 238.729,492.392 241.5,489.5C 236.5,491.664 231.833,494.331 227.5,497.5C 216.966,495.303 206.633,492.469 196.5,489C 192.371,486.864 188.871,484.031 186,480.5C 185.038,475.767 186.538,471.934 190.5,469C 195.699,465.4 201.365,462.9 207.5,461.5C 207.167,462.167 206.833,462.833 206.5,463.5C 208.027,463.573 209.027,462.906 209.5,461.5C 210.492,461.672 211.158,461.338 211.5,460.5C 221.152,456.794 231.152,455.627 241.5,457C 242.35,462.699 245.017,467.366 249.5,471C 259.971,472.22 266.304,467.554 268.5,457C 276.204,456.92 283.871,457.587 291.5,459C 292.056,459.383 292.389,459.883 292.5,460.5 Z M 292.5,460.5 C 293.833,460.5 295.167,460.5 296.5,460.5C 293.001,462.75 289.335,464.75 285.5,466.5C 287.234,463.8 289.568,461.8 292.5,460.5 Z M 207.5,461.5 C 208.167,461.5 208.833,461.5 209.5,461.5C 209.027,462.906 208.027,463.573 206.5,463.5C 206.833,462.833 207.167,462.167 207.5,461.5 Z M 241.5,489.5 C 238.729,492.392 235.729,495.058 232.5,497.5C 230.833,497.5 229.167,497.5 227.5,497.5C 231.833,494.331 236.5,491.664 241.5,489.5 Z M 267.5,489.5 C 264.167,492.833 260.833,496.167 257.5,499.5C 254.833,499.5 252.167,499.5 249.5,499.5C 255.17,495.663 261.17,492.33 267.5,489.5 Z"/></g>
</svg>
