<?xml version="1.0" encoding="UTF-8"?>
<!DOCTYPE svg PUBLIC "-//W3C//DTD SVG 1.1//EN" "http://www.w3.org/Graphics/SVG/1.1/DTD/svg11.dtd">
<svg xmlns="http://www.w3.org/2000/svg" version="1.1" width="512px" height="512px" style="shape-rendering:geometricPrecision; text-rendering:geometricPrecision; image-rendering:optimizeQuality; fill-rule:evenodd; clip-rule:evenodd" xmlns:xlink="http://www.w3.org/1999/xlink">
<g><path style="opacity:0.997" fill="#ff5f5f" d="M 229.5,-0.5 C 247.167,-0.5 264.833,-0.5 282.5,-0.5C 321.508,1.28256 359.508,8.78256 396.5,22C 449.719,45.2296 483.552,85.0629 498,141.5C 505.174,170.231 509.674,199.231 511.5,228.5C 511.5,246.5 511.5,264.5 511.5,282.5C 509.717,321.508 502.217,359.508 489,396.5C 467.48,447.685 429.98,480.851 376.5,496C 345.249,504.581 313.582,509.747 281.5,511.5C 264.167,511.5 246.833,511.5 229.5,511.5C 190.148,509.827 151.815,502.327 114.5,489C 61.2812,465.77 27.4478,425.937 13,369.5C 5.82596,340.77 1.32596,311.77 -0.5,282.5C -0.5,264.5 -0.5,246.5 -0.5,228.5C 1.28242,189.493 8.78242,151.493 22,114.5C 43.5204,63.3155 81.0204,30.1488 134.5,15C 165.751,6.41925 197.418,1.25258 229.5,-0.5 Z"/></g>
<g><path style="opacity:1" fill="#fffdfd" d="M 196.5,136.5 C 180.819,136.167 165.152,136.501 149.5,137.5C 149.624,138.107 149.957,138.44 150.5,138.5C 181.465,168.965 212.299,199.632 243,230.5C 246.553,240.574 243.053,245.074 232.5,244C 201.299,212.632 169.965,181.465 138.5,150.5C 138.44,149.957 138.107,149.624 137.5,149.5C 136.501,165.486 136.167,181.486 136.5,197.5C 133.813,203.405 129.48,204.905 123.5,202C 122.299,201.097 121.465,199.931 121,198.5C 120.333,173.833 120.333,149.167 121,124.5C 122.167,123.333 123.333,122.167 124.5,121C 149.167,120.333 173.833,120.333 198.5,121C 203.535,124.013 204.702,128.18 202,133.5C 200.512,135.16 198.679,136.16 196.5,136.5 Z"/></g>
<g><path style="opacity:1" fill="#fffcfc" d="M 374.5,196.5 C 374.833,180.819 374.499,165.152 373.5,149.5C 372.893,149.624 372.56,149.957 372.5,150.5C 342.035,181.465 311.368,212.299 280.5,243C 270.426,246.553 265.926,243.053 267,232.5C 298.368,201.299 329.535,169.965 360.5,138.5C 361.043,138.44 361.376,138.107 361.5,137.5C 345.514,136.501 329.514,136.167 313.5,136.5C 307.595,133.813 306.095,129.48 309,123.5C 309.903,122.299 311.069,121.465 312.5,121C 337.167,120.333 361.833,120.333 386.5,121C 388.378,122.543 389.878,124.376 391,126.5C 391.667,149.833 391.667,173.167 391,196.5C 388.472,203.181 383.972,205.014 377.5,202C 375.84,200.512 374.84,198.679 374.5,196.5 Z"/></g>
<g><path style="opacity:1" fill="#ffb3b3" d="M 196.5,136.5 C 181.167,137.167 165.833,137.833 150.5,138.5C 149.957,138.44 149.624,138.107 149.5,137.5C 165.152,136.501 180.819,136.167 196.5,136.5 Z"/></g>
<g><path style="opacity:1" fill="#ffc8c8" d="M 313.5,136.5 C 329.514,136.167 345.514,136.501 361.5,137.5C 361.376,138.107 361.043,138.44 360.5,138.5C 344.833,137.833 329.167,137.167 313.5,136.5 Z"/></g>
<g><path style="opacity:1" fill="#ffc9c9" d="M 138.5,150.5 C 137.833,166.167 137.167,181.833 136.5,197.5C 136.167,181.486 136.501,165.486 137.5,149.5C 138.107,149.624 138.44,149.957 138.5,150.5 Z"/></g>
<g><path style="opacity:1" fill="#ffafaf" d="M 372.5,150.5 C 372.56,149.957 372.893,149.624 373.5,149.5C 374.499,165.152 374.833,180.819 374.5,196.5C 373.833,181.167 373.167,165.833 372.5,150.5 Z"/></g>
<g><path style="opacity:1" fill="#fffcfc" d="M 150.5,372.5 C 149.957,372.56 149.624,372.893 149.5,373.5C 165.486,374.499 181.486,374.833 197.5,374.5C 203.579,377.076 205.079,381.409 202,387.5C 201.097,388.701 199.931,389.535 198.5,390C 173.833,390.667 149.167,390.667 124.5,390C 122.622,388.457 121.122,386.624 120,384.5C 119.333,360.833 119.333,337.167 120,313.5C 123.04,307.632 127.54,306.132 133.5,309C 134.883,310.271 135.883,311.771 136.5,313.5C 136.167,329.514 136.501,345.514 137.5,361.5C 138.107,361.376 138.44,361.043 138.5,360.5C 168.965,329.535 199.632,298.701 230.5,268C 241.487,264.657 245.654,268.491 243,279.5C 211.965,310.368 181.132,341.368 150.5,372.5 Z"/></g>
<g><path style="opacity:1" fill="#fffcfc" d="M 372.5,360.5 C 372.56,361.043 372.893,361.376 373.5,361.5C 374.499,345.514 374.833,329.514 374.5,313.5C 377.042,307.389 381.375,305.889 387.5,309C 388.701,309.903 389.535,311.069 390,312.5C 390.667,337.167 390.667,361.833 390,386.5C 388.457,388.378 386.624,389.878 384.5,391C 360.833,391.667 337.167,391.667 313.5,391C 307.632,387.96 306.132,383.46 309,377.5C 310.488,375.84 312.321,374.84 314.5,374.5C 330.181,374.833 345.848,374.499 361.5,373.5C 361.376,372.893 361.043,372.56 360.5,372.5C 329.535,342.035 298.701,311.368 268,280.5C 264.657,269.513 268.491,265.346 279.5,268C 310.368,299.035 341.368,329.868 372.5,360.5 Z"/></g>
<g><path style="opacity:1" fill="#ffcac9" d="M 374.5,313.5 C 374.833,329.514 374.499,345.514 373.5,361.5C 372.893,361.376 372.56,361.043 372.5,360.5C 373.167,344.833 373.833,329.167 374.5,313.5 Z"/></g>
<g><path style="opacity:1" fill="#ffaeae" d="M 136.5,313.5 C 137.167,329.167 137.833,344.833 138.5,360.5C 138.44,361.043 138.107,361.376 137.5,361.5C 136.501,345.514 136.167,329.514 136.5,313.5 Z"/></g>
<g><path style="opacity:1" fill="#ffc8c7" d="M 150.5,372.5 C 166.167,373.167 181.833,373.833 197.5,374.5C 181.486,374.833 165.486,374.499 149.5,373.5C 149.624,372.893 149.957,372.56 150.5,372.5 Z"/></g>
<g><path style="opacity:1" fill="#ffaaaa" d="M 360.5,372.5 C 361.043,372.56 361.376,372.893 361.5,373.5C 345.848,374.499 330.181,374.833 314.5,374.5C 329.833,373.833 345.167,373.167 360.5,372.5 Z"/></g>
</svg>
