<?xml version="1.0" encoding="UTF-8"?>
<!DOCTYPE svg PUBLIC "-//W3C//DTD SVG 1.1//EN" "http://www.w3.org/Graphics/SVG/1.1/DTD/svg11.dtd">
<svg xmlns="http://www.w3.org/2000/svg" version="1.1" width="512px" height="512px" style="shape-rendering:geometricPrecision; text-rendering:geometricPrecision; image-rendering:optimizeQuality; fill-rule:evenodd; clip-rule:evenodd" xmlns:xlink="http://www.w3.org/1999/xlink">
<g><path style="opacity:0.998" fill="#db4437" d="M 233.5,5.5 C 319.661,0.589432 391.161,30.2561 448,94.5C 502.367,163.662 518.367,240.995 496,326.5C 468.167,411.667 411.667,468.167 326.5,496C 240.991,518.366 163.658,502.366 94.5,448C 23.427,384.467 -5.07297,305.3 9,210.5C 25.8937,128.482 71.3937,68.3154 145.5,30C 173.562,16.8211 202.895,8.6544 233.5,5.5 Z"/></g>
<g><path style="opacity:1" fill="#fefcfc" d="M 318.5,130.5 C 318.5,139.167 318.5,147.833 318.5,156.5C 334.167,156.5 349.833,156.5 365.5,156.5C 379.032,158.879 384.532,166.879 382,180.5C 379.42,187.873 374.254,192.04 366.5,193C 329.167,193.167 291.833,193.333 254.5,193.5C 216.108,193.658 177.775,193.158 139.5,192C 129.843,187.061 126.343,179.228 129,168.5C 132.031,161.624 137.198,157.624 144.5,156.5C 160.5,156.5 176.5,156.5 192.5,156.5C 192.5,147.833 192.5,139.167 192.5,130.5C 195.67,111.493 206.67,99.6601 225.5,95C 244.833,94.3333 264.167,94.3333 283.5,95C 303.443,98.7755 315.109,110.609 318.5,130.5 Z"/></g>
<g><path style="opacity:1" fill="#db4437" d="M 225.5,113.5 C 245.169,113.333 264.836,113.5 284.5,114C 291.909,116.408 297.076,121.242 300,128.5C 300.5,137.827 300.666,147.161 300.5,156.5C 270.5,156.5 240.5,156.5 210.5,156.5C 210.334,147.161 210.5,137.827 211,128.5C 214.021,121.647 218.855,116.647 225.5,113.5 Z"/></g>
<g><path style="opacity:1" fill="#e2675c" d="M 192.5,130.5 C 192.5,139.167 192.5,147.833 192.5,156.5C 176.5,156.5 160.5,156.5 144.5,156.5C 159.991,155.504 175.658,155.17 191.5,155.5C 191.174,146.983 191.507,138.65 192.5,130.5 Z"/></g>
<g><path style="opacity:1" fill="#e2675c" d="M 318.5,130.5 C 319.493,138.65 319.826,146.983 319.5,155.5C 335.009,155.17 350.342,155.504 365.5,156.5C 349.833,156.5 334.167,156.5 318.5,156.5C 318.5,147.833 318.5,139.167 318.5,130.5 Z"/></g>
<g><path style="opacity:1" fill="#e7827a" d="M 361.5,204.5 C 361.5,203.167 361.5,201.833 361.5,200.5C 290.833,200.5 220.167,200.5 149.5,200.5C 149.5,201.833 149.5,203.167 149.5,204.5C 148.549,203.081 148.216,201.415 148.5,199.5C 219.833,199.5 291.167,199.5 362.5,199.5C 362.784,201.415 362.451,203.081 361.5,204.5 Z"/></g>
<g><path style="opacity:1" fill="#fefefd" d="M 361.5,204.5 C 355.268,268.487 349.101,332.487 343,396.5C 341.456,406.376 335.956,412.876 326.5,416C 279.167,416.667 231.833,416.667 184.5,416C 174.014,412.208 168.514,404.708 168,393.5C 161.701,330.506 155.534,267.506 149.5,204.5C 149.5,203.167 149.5,201.833 149.5,200.5C 220.167,200.5 290.833,200.5 361.5,200.5C 361.5,201.833 361.5,203.167 361.5,204.5 Z"/></g>
<g><path style="opacity:1" fill="#db4639" d="M 214.5,228.5 C 221.696,226.7 226.863,229.033 230,235.5C 232.278,274.828 234.444,314.161 236.5,353.5C 236.609,358.278 236.109,362.944 235,367.5C 230.8,371.714 225.966,372.548 220.5,370C 218.106,368.048 216.606,365.548 216,362.5C 213.703,319.83 211.703,277.163 210,234.5C 211.332,232.34 212.832,230.34 214.5,228.5 Z"/></g>
<g><path style="opacity:1" fill="#db4639" d="M 288.5,227.5 C 297.451,227.617 301.784,232.117 301.5,241C 299.056,281.485 296.89,321.985 295,362.5C 292.997,370.087 288.164,372.92 280.5,371C 278.714,370.215 277.214,369.049 276,367.5C 274.891,362.944 274.391,358.278 274.5,353.5C 276.556,314.161 278.722,274.828 281,235.5C 282.69,231.979 285.19,229.312 288.5,227.5 Z"/></g>
</svg>
